<svg width="120" height="56" viewBox="0 0 120 56" fill="none" xmlns="http://www.w3.org/2000/svg">
<g id="Group 10339">
<g id="Group">
<g id="Group_2">
<path id="Vector" d="M77.2596 28.6113C77.6075 24.319 81.023 21.6141 82.2285 17.6917C83.1218 13.6164 76.4735 10.9822 73.8714 8.53052C68.2665 1.72824 53.3255 3.14566 46.775 8.91628C44.846 8.35766 42.2343 13.0719 40.7776 14.3397C37.2892 16.1185 35.0026 22.3139 38.7104 24.7652C42.5896 26.564 43.1281 34.6897 47.4787 31.5106C47.9671 32.5622 49.4758 33.0189 49.2632 34.3951C48.3576 38.5481 42.5374 41.8754 45.1152 46.5892C40.7239 47.8138 39.8934 55.7274 44.8663 54.4142C45.8575 55.3433 47.4027 55.355 48.3998 54.4588C49.0594 55.7703 50.7561 55.0489 51.7583 54.5773C53.3951 53.9558 55.7113 52.9956 55.2004 50.8302H65.8826C65.4532 53.0429 68.1658 53.6835 69.7232 54.3481C70.7287 54.7643 72.1157 55.5641 72.8311 54.2764C73.8228 55.1894 75.4998 54.3037 76.3354 53.5262C80.2836 55.8595 81.1997 48.6228 77.7173 46.7819C79.9873 41.3873 72.8307 38.3848 72.1462 33.5792C72.009 33.2522 71.9508 32.9007 72.0153 32.5173C72.1088 31.9623 72.4288 31.4696 72.723 30.999C72.8666 30.6113 73.0611 30.337 73.2907 30.1421C73.4092 29.9956 73.5403 29.8606 73.6933 29.7463C74.0982 29.4437 74.5713 29.4351 75.0136 29.6123C75.8801 29.5346 76.7552 29.4816 77.2596 28.6113Z" fill="#F0CAA5"/>
<path id="Vector_2" d="M71.8728 43.6661C69.7538 47.686 67.0942 44.3988 65.9156 51.8177C67.2292 49.7527 55.6758 51.2701 55.2663 50.8297C54.5607 48.2006 51.8805 47.0557 50.0164 45.931C50.2293 44.9615 49.1844 43.7385 50.5827 42.9703C51.7249 42.065 54.8055 43.3822 54.6115 41.1393C50.8371 33.7108 61.4003 39.7375 64.7607 37.3486C66.2021 36.7926 68.48 36.4385 69.0952 38.2961C69.4829 39.2719 68.1218 40.6148 69.1319 41.3417C70.8222 41.364 72.1739 41.5313 71.8728 43.6661Z" fill="#F1F1F1"/>
<path id="Vector_3" d="M64.6186 30.6352C63.2733 31.4286 61.41 30.1198 60.7941 28.8711C60.3347 27.4168 58.6128 33.0404 56.2239 31.4022C57.2987 29.6889 58.6106 27.7112 57.9412 25.4858C60.1788 26.2597 59.8736 28.2432 62.0746 25.0516C62.3258 27.1032 64.9763 28.7227 64.6186 30.6352Z" fill="#F1F1F1"/>
<path id="Vector_4" d="M65.5543 31.6528C64.4445 30.5353 60.9465 31.6161 60.6056 28.6628C59.7765 30.1618 58.4893 31.7626 56.4411 31.8106C54.9378 42.0634 68.2468 42.3925 65.5543 31.6528Z" fill="#EAAC8E"/>
<path id="Vector_5" d="M65.76 30.7578C63.099 31.7976 60.0786 29.4317 60.4751 26.5962C60.2761 26.6504 60.0601 26.6178 59.8638 26.5693C60.7029 28.9364 58.9582 31.6593 56.4581 31.8928C56.2152 31.9201 56.2035 32.2699 56.4581 32.2817C57.9664 32.3536 59.4473 31.8871 60.6542 30.993C62.1721 32.2757 64.3762 32.3148 65.9487 31.0824C66.1021 30.9619 65.937 30.6936 65.76 30.7578Z" fill="#49312C"/>
</g>
<g id="Group_3">
<g id="Group_4">
<path id="Vector_6" d="M46.7359 8.52171C46.0082 8.03045 45.1224 8.34573 44.5062 8.87151C43.7701 9.49966 43.4975 10.4726 43.1161 11.3247C42.346 13.0444 40.8058 14.1475 39.3791 15.2933C38 16.4007 36.5586 17.7937 36.2004 19.6026C35.831 21.4681 36.8341 23.1795 38.0731 24.49C39.335 25.8245 40.9538 26.8609 41.8874 28.4819C42.4009 29.3733 42.5891 30.4061 43.0864 31.3054C43.5026 32.0585 44.1914 32.7679 45.0744 32.9113C46.9984 33.2237 48.3986 31.1304 49.0797 29.6241C49.8635 27.8909 50.1322 25.9462 49.8203 24.0685C49.1528 20.0534 45.7241 16.4391 46.8447 12.1856C46.9658 11.7262 47.149 11.2923 47.3931 10.885C47.5458 10.6301 47.1605 10.4112 46.9979 10.6541C45.9656 12.1974 45.9133 14.1401 46.323 15.8994C46.7848 17.8821 47.7937 19.6674 48.5271 21.5516C49.2269 23.35 49.6177 25.2284 49.2308 27.1491C49.0543 28.0251 48.7525 28.8743 48.3247 29.6593C47.9071 30.4253 47.3866 31.2112 46.6784 31.7389C45.9929 32.2501 45.1617 32.4054 44.4494 31.8535C43.7347 31.2999 43.4304 30.4042 43.131 29.5883C42.8071 28.706 42.4105 27.906 41.8102 27.1776C41.241 26.4869 40.5646 25.8945 39.8929 25.3071C38.6162 24.1903 37.1235 22.9349 36.7358 21.197C36.3352 19.4017 37.4354 17.8028 38.6804 16.629C39.937 15.4443 41.4539 14.5453 42.5783 13.2194C43.1708 12.5208 43.5512 11.7495 43.8979 10.908C44.2274 10.1089 44.6292 9.23377 45.4961 8.90819C45.8433 8.778 46.231 8.75882 46.5786 8.89452C46.8049 8.98227 46.9162 8.64326 46.7359 8.52171Z" fill="#49312C"/>
</g>
<g id="Group_5">
<path id="Vector_7" d="M47.2751 31.6586C47.3145 32.0338 47.5408 32.4147 47.7551 32.7178C47.992 33.0527 48.2615 33.3591 48.5595 33.6408C49.15 34.1987 49.8139 34.6742 50.4734 35.1458C51.1318 35.6164 51.7847 36.0983 52.3529 36.6778C52.6403 36.971 52.9038 37.2865 53.121 37.6358C53.3411 37.99 53.4601 38.364 53.6188 38.7447C53.7111 38.9655 54.1177 38.9758 54.0865 38.6814C54.0045 37.9051 53.4847 37.1626 52.9849 36.5903C52.4399 35.9667 51.7854 35.4481 51.1201 34.96C50.4396 34.4608 49.7381 33.988 49.1088 33.4234C48.8019 33.1481 48.5075 32.852 48.2464 32.5327C47.992 32.2213 47.8076 31.8465 47.5425 31.5483C47.4571 31.4516 47.261 31.5233 47.2751 31.6586Z" fill="#49312C"/>
</g>
<g id="Group_6">
<path id="Vector_8" d="M53.0809 35.5737C53.7916 36.5797 54.9191 37.3045 56.1236 37.5611C56.4142 37.6229 56.5391 37.1799 56.2469 37.1139C55.0997 36.8545 54.1097 36.2573 53.3123 35.3954C53.2008 35.2748 52.9834 35.4354 53.0809 35.5737Z" fill="#49312C"/>
</g>
<g id="Group_7">
<path id="Vector_9" d="M52.8517 29.5157C53.0018 30.2129 53.524 30.8106 54.0805 31.233C54.7244 31.7221 55.4991 32.0038 56.3039 32.0669C57.965 32.1968 59.6205 31.4636 60.2359 29.8408C60.596 28.8909 60.5967 27.8465 60.4493 26.8563C60.3949 26.4914 59.8796 26.6221 59.8492 26.9376C59.7571 27.8906 59.8305 28.8858 59.4349 29.782C59.0822 30.5809 58.396 31.1325 57.5694 31.3903C56.6633 31.6727 55.6863 31.5706 54.852 31.1167C54.0999 30.7077 53.623 30.0688 53.1181 29.4035C53.021 29.2754 52.8151 29.3452 52.8517 29.5157Z" fill="#49312C"/>
</g>
<g id="Group_8">
<path id="Vector_10" d="M57.2737 18.2408C57.5829 18.1302 57.9296 18.0638 58.2507 17.9907C58.57 17.9178 58.8944 17.8591 59.2207 17.8289C59.8843 17.7672 60.5516 17.8058 61.203 17.9471C61.5058 18.0127 61.635 17.5464 61.3312 17.4817C60.6264 17.3316 59.9023 17.2837 59.1847 17.3568C58.828 17.393 58.4743 17.452 58.1293 17.5505C57.7793 17.6502 57.4815 17.807 57.1579 17.9662C57.0063 18.0403 57.1125 18.2983 57.2737 18.2408Z" fill="#49312C"/>
</g>
<g id="Group_9">
<path id="Vector_11" d="M70.4518 6.67103C71.1555 6.2354 72.0656 6.55283 72.6139 7.09252C73.2558 7.72427 73.6317 8.56988 74.1978 9.26396C75.3042 10.6202 76.94 11.3678 78.4469 12.1791C79.8612 12.9406 81.3673 13.8893 82.0451 15.4155C82.8418 17.2094 81.8955 19.0608 80.837 20.5139C79.7624 21.9889 78.4272 23.3262 77.8653 25.1066C77.5665 26.0529 77.5644 27.0747 77.2064 28.004C76.9302 28.7214 76.3637 29.4212 75.5349 29.4349C74.6679 29.4493 73.8825 28.8518 73.285 28.2841C72.6588 27.6892 72.122 27.0064 71.6923 26.2572C70.7837 24.6727 70.4221 22.8707 70.5837 21.0557C70.7717 18.9414 71.5132 16.9277 71.8235 14.8337C72.0898 13.0362 72.051 11.0705 71.0963 9.46415C70.8824 9.10429 70.6249 8.77199 70.3329 8.4723C70.1255 8.25939 69.8163 8.57659 70.0095 8.79572C71.3109 10.2721 71.5638 12.3493 71.3598 14.2367C71.1227 16.4326 70.3341 18.5268 70.0795 20.7208C69.8563 22.6419 70.1478 24.5497 71.0062 26.2888C71.4121 27.1114 71.941 27.8796 72.572 28.5461C73.2052 29.215 73.9801 29.8659 74.8962 30.0858C75.7818 30.2982 76.6756 30.0156 77.2606 29.3133C77.8916 28.5557 78.0921 27.613 78.2472 26.6638C78.334 26.133 78.4232 25.6029 78.6003 25.0934C78.754 24.6516 78.9686 24.2339 79.2079 23.8328C79.6965 23.014 80.3007 22.273 80.8789 21.5175C82.0494 19.9884 83.1672 18.1312 82.8154 16.1231C82.5148 14.4057 81.1038 13.1422 79.6998 12.253C78.1805 11.2906 76.4277 10.6658 75.1059 9.40997C74.4027 8.74202 73.9853 7.8825 73.3939 7.12728C72.875 6.4646 72.1248 5.91581 71.2471 5.9218C70.8414 5.92444 70.4948 6.06637 70.2049 6.35096C70.0419 6.51135 70.2528 6.79426 70.4518 6.67103Z" fill="#49312C"/>
</g>
<g id="Group_10">
<path id="Vector_12" d="M73.5899 29.1413C73.389 29.4726 73.277 29.8661 73.0905 30.2096C72.8999 30.5606 72.6746 30.8968 72.4326 31.2142C71.9265 31.8781 71.3298 32.4664 70.756 33.0704C70.1883 33.6681 69.6381 34.2953 69.2044 34.9992C68.8068 35.6444 68.3894 36.5096 68.4494 37.29C68.4688 37.5418 68.8562 37.6321 68.9171 37.3533C69.0039 36.9558 69.0488 36.5645 69.1931 36.18C69.3374 35.7949 69.5407 35.4324 69.7671 35.09C70.2288 34.3916 70.8062 33.7824 71.3856 33.1821C71.9491 32.5988 72.5098 32.0097 72.9891 31.3535C73.2255 31.0298 73.4326 30.6884 73.5978 30.3228C73.7465 29.9939 73.9107 29.5875 73.8819 29.2206C73.8702 29.0698 73.6746 29.0018 73.5899 29.1413Z" fill="#49312C"/>
</g>
<g id="Group_11">
<path id="Vector_13" d="M68.6137 33.9705C68.3056 34.4582 67.9311 34.9125 67.495 35.2911C67.0575 35.6711 66.5614 35.9645 66.0292 36.1918C65.7904 36.2937 65.9645 36.7162 66.2078 36.6157C67.3498 36.1444 68.3481 35.2467 68.8679 34.1192C68.9463 33.9494 68.7168 33.8075 68.6137 33.9705Z" fill="#49312C"/>
</g>
<g id="Group_12">
<path id="Vector_14" d="M67.7358 28.0095C67.4328 28.6082 67.164 29.2014 66.6946 29.6957C66.2206 30.1947 65.6181 30.548 64.9528 30.7228C63.5922 31.0805 62.1093 30.5212 61.4202 29.2855C60.9944 28.5224 60.8901 27.6322 60.6525 26.8029C60.5595 26.4785 60.0407 26.5319 60.0524 26.8841C60.109 28.5701 60.7082 30.443 62.3989 31.1275C63.8612 31.7195 65.6797 31.326 66.8377 30.2805C67.4476 29.7298 67.9825 28.9252 68.0075 28.0831C68.0115 27.9422 67.8015 27.8796 67.7358 28.0095Z" fill="#49312C"/>
</g>
<path id="Vector_15" d="M64.3008 22.9402C64.1364 23.7844 63.5849 24.5324 62.8671 25.0057C62.4559 25.2764 61.9807 25.473 61.664 25.8479C61.4454 26.1066 61.319 26.4315 61.1167 26.7043C60.9141 26.975 60.5851 27.2037 60.2564 27.1275L59.6889 27.1637C59.5386 27.1095 59.3962 27.0153 59.2799 26.9069C59.0313 26.6763 58.8488 26.3795 58.5882 26.1649C58.2073 25.8542 57.7059 25.7458 57.2528 25.5533C56.4587 25.2183 55.781 24.5847 55.4681 23.7827C55.1533 22.9805 55.2355 22.0181 55.7407 21.3202C56.1579 20.7467 56.8196 20.3897 57.5074 20.2133C58.1631 20.0447 58.7728 20.0006 59.4444 20.0006C60.2003 19.8944 61.1188 19.762 61.6482 19.8002C62.3562 19.8483 63.0721 20.0809 63.5854 20.5681C64.2085 21.1615 64.4631 22.0939 64.3008 22.9402Z" fill="#49312C"/>
<g id="Group_13">
<path id="Vector_16" d="M47.0963 8.58545C47.4178 8.33179 47.7904 8.12104 48.1251 7.88225C48.4516 7.64945 48.7889 7.43128 49.1308 7.22197C49.7966 6.81391 50.4969 6.4598 51.2196 6.16346C52.6866 5.56216 54.2493 5.20828 55.8326 5.12821C56.1616 5.11166 56.1637 4.59763 55.8326 4.61442C54.1752 4.69833 52.5391 5.06347 51.0059 5.69978C50.243 6.01649 49.5094 6.3989 48.8131 6.8434C48.4701 7.06253 48.1394 7.30277 47.8213 7.55667C47.4909 7.82063 47.2313 8.1292 46.9388 8.42817C46.8361 8.53342 46.9867 8.672 47.0963 8.58545Z" fill="#49312C"/>
</g>
<g id="Group_14">
<path id="Vector_17" d="M70.0985 6.09225C69.4821 5.37562 68.5217 4.928 67.6622 4.56933C66.7717 4.19795 65.836 3.94693 64.8798 3.81843C63.8741 3.68321 62.8822 3.71245 61.876 3.82346C60.846 3.9371 59.7493 4.07952 58.7568 3.6916C57.757 3.3008 57.1749 2.35306 57.1089 1.3039C57.09 1.00205 56.6572 1.00109 56.639 1.3039C56.5841 2.2092 57.0358 3.12146 57.7345 3.6904C58.5115 4.32335 59.5386 4.49141 60.5151 4.46192C61.6295 4.42836 62.723 4.20419 63.8419 4.24854C64.8544 4.28882 65.8573 4.48014 66.8166 4.80597C67.3526 4.98818 67.8703 5.21475 68.3716 5.47776C68.8928 5.75108 69.3692 6.09608 69.8993 6.35046C70.0686 6.43197 70.2227 6.23658 70.0985 6.09225Z" fill="#49312C"/>
</g>
<g id="Group_15">
<path id="Vector_18" d="M57.2652 3.82345C56.1202 2.9764 55.4472 1.64553 55.2933 0.248731C55.2578 -0.0737371 54.7747 -0.0919584 54.7764 0.248731C54.7833 1.83182 55.7481 3.32956 57.0977 4.11019C57.2871 4.22 57.4331 3.94764 57.2652 3.82345Z" fill="#49312C"/>
</g>
<g id="Group_16">
<path id="Vector_19" d="M56.3408 3.99107C55.4964 3.9436 54.6481 3.66117 53.9463 3.18934C53.831 3.1119 53.6618 3.16704 53.5949 3.2814C53.5213 3.40751 53.5714 3.55568 53.6869 3.63288C54.4762 4.15938 55.3928 4.41807 56.3405 4.36365C56.5803 4.35022 56.5808 4.0045 56.3408 3.99107Z" fill="#49312C"/>
</g>
<g id="Group_17">
<path id="Vector_20" d="M50.2019 46.4049C49.866 45.7932 49.3911 45.2864 48.7991 44.9165C48.5109 44.7364 48.2007 44.5902 47.8804 44.4768C47.5656 44.3653 47.171 44.244 46.8341 44.279C46.5536 44.3082 46.4718 44.6957 46.7653 44.7868C47.0578 44.8774 47.3673 44.9018 47.6613 44.9968C47.9559 45.092 48.2359 45.2176 48.5023 45.3754C49.0271 45.6863 49.5129 46.1032 49.8771 46.5947C50.0183 46.7849 50.3213 46.6223 50.2019 46.4049Z" fill="#49312C"/>
</g>
<g id="Group_18">
<path id="Vector_21" d="M47.6087 46.6616C47.116 46.5187 46.654 46.4303 46.1366 46.4482C45.637 46.4657 45.1323 46.566 44.6602 46.7283C43.7199 47.0519 42.8849 47.6369 42.2634 48.414C41.0958 49.8743 40.5679 52.2821 41.7714 53.8844C42.4123 54.7375 43.5765 55.1846 44.5734 54.695C44.8417 54.5634 44.654 54.1268 44.3706 54.2141C43.6334 54.4409 42.8141 54.1421 42.3373 53.5473C41.7995 52.877 41.6791 51.9628 41.7676 51.1318C41.9465 49.4538 43.0383 47.9366 44.5981 47.2821C45.4905 46.9076 46.5739 46.7817 47.5303 46.9452C47.714 46.9769 47.7943 46.7153 47.6087 46.6616Z" fill="#49312C"/>
</g>
<g id="Group_19">
<path id="Vector_22" d="M45.2835 51.6204C45.1282 51.7319 44.9831 51.8369 44.863 51.9879C44.7333 52.151 44.6369 52.3202 44.5664 52.5166C44.4293 52.8983 44.4101 53.3092 44.4911 53.7053C44.658 54.5183 45.3356 55.1424 46.1344 55.3238C46.5957 55.4286 47.0742 55.4054 47.4979 55.1858C47.793 55.0328 47.5885 54.5634 47.2732 54.6533C46.5537 54.858 45.7139 54.6916 45.2878 54.0251C45.0776 53.6959 45.0157 53.3164 45.0529 52.9311C45.0872 52.5768 45.2373 52.1397 45.4729 51.8668C45.5815 51.7412 45.4375 51.5099 45.2835 51.6204Z" fill="#49312C"/>
</g>
<g id="Group_20">
<path id="Vector_23" d="M48.5401 52.3385C48.3032 52.5677 48.1033 52.8019 47.9891 53.1153C47.8748 53.4289 47.8762 53.7856 47.9479 54.1088C48.098 54.7849 48.6336 55.2961 49.2869 55.4922C49.6092 55.5888 49.9443 55.6137 50.2745 55.544C50.655 55.4637 50.9822 55.2414 51.3162 55.0544C52.0486 54.6439 52.9029 54.5677 53.6711 54.2484C54.3834 53.952 55.0139 53.2963 55.0408 52.4977C55.0487 52.2594 54.6603 52.2598 54.6711 52.4977C54.714 53.4464 53.7039 53.7861 52.9475 53.935C52.544 54.0144 52.1345 54.053 51.7353 54.157C51.3215 54.2649 50.9734 54.4778 50.6029 54.6833C50.0071 55.0141 49.3097 54.9918 48.8254 54.4711C48.3943 54.0074 48.3576 53.0621 48.7748 52.5737C48.9122 52.4126 48.6957 52.1877 48.5401 52.3385Z" fill="#49312C"/>
</g>
<g id="Group_21">
<path id="Vector_24" d="M55.2952 51.6007C55.3098 51.2605 55.3631 50.945 55.3221 50.6024C55.2842 50.2864 55.2151 49.9737 55.1087 49.6735C54.8891 49.0535 54.5577 48.4887 54.1271 47.9917C53.3242 47.0646 52.1216 46.3563 50.8854 46.2635C50.5618 46.2393 50.5028 46.744 50.8097 46.8236C51.902 47.1065 52.885 47.557 53.6445 48.418C54.0195 48.843 54.3153 49.3508 54.5184 49.8795C54.6186 50.1401 54.7006 50.4065 54.768 50.6774C54.8411 50.9713 54.9442 51.2976 54.9509 51.6007C54.9555 51.8232 55.2856 51.822 55.2952 51.6007Z" fill="#49312C"/>
</g>
<g id="Group_22">
<path id="Vector_25" d="M48.5614 35.2609C48.2732 35.966 47.8735 36.6493 47.4753 37.2978C47.0646 37.967 46.6021 38.6011 46.155 39.2458C45.288 40.4959 44.4491 41.8354 44.16 43.3518C44.0065 44.1559 43.9528 45.0994 44.3125 45.8584C44.4239 46.0936 44.8488 45.9872 44.8176 45.7218C44.7632 45.2598 44.68 44.8172 44.6913 44.3487C44.7025 43.879 44.7821 43.4173 44.9097 42.9658C45.1736 42.0327 45.6464 41.1794 46.1681 40.3681C46.6932 39.5517 47.2686 38.7689 47.7831 37.9456C48.2952 37.1261 48.6923 36.3014 48.8965 35.3534C48.945 35.1295 48.6446 35.0573 48.5614 35.2609Z" fill="#49312C"/>
</g>
<g id="Group_23">
<path id="Vector_26" d="M47.9819 34.7708C47.8915 35.0209 47.757 35.2678 47.6254 35.4987C47.4952 35.727 47.3485 35.9499 47.1927 36.1616C46.8843 36.581 46.4909 36.9418 46.0601 37.2319C45.8148 37.3971 46.0397 37.7932 46.2941 37.6323C46.7947 37.3158 47.2162 36.9037 47.5633 36.4249C47.7347 36.1885 47.8685 35.9394 47.9807 35.6701C48.0946 35.3961 48.1557 35.124 48.2116 34.8339C48.2406 34.6831 48.0342 34.6263 47.9819 34.7708Z" fill="#49312C"/>
</g>
<g id="Group_24">
<path id="Vector_27" d="M56.0433 32.2116C56.1226 32.976 56.2499 33.7362 56.3389 34.5003C56.4235 35.227 56.5005 35.9563 56.692 36.6643C57.038 37.9432 57.7393 39.1237 59.0203 39.6262C60.255 40.1105 61.7369 39.913 62.9541 39.4716C64.2287 39.0096 65.4128 38.134 65.859 36.8053C66.1414 35.9645 66.063 35.0558 66.017 34.186C65.9669 33.2375 65.9264 32.2874 65.836 31.3418C65.8115 31.0879 65.4298 31.0769 65.4318 31.3418C65.4373 32.127 65.4792 32.9117 65.5183 33.6957C65.5545 34.421 65.6295 35.1596 65.5605 35.8849C65.4308 37.2476 64.4943 38.2498 63.2891 38.8089C62.1519 39.3366 60.7499 39.6092 59.5333 39.2093C58.3684 38.8262 57.6875 37.7698 57.3564 36.6423C57.1478 35.9324 57.0569 35.1939 56.9548 34.4631C56.844 33.6705 56.7342 32.8328 56.2967 32.1426C56.2307 32.038 56.0284 32.0685 56.0433 32.2116Z" fill="#49312C"/>
</g>
<g id="Group_25">
<path id="Vector_28" d="M60.4001 29.8894C60.497 30.5519 60.6324 31.2083 60.7178 31.8727C60.8019 32.5282 60.8384 33.1892 60.8425 33.8499C60.8444 34.1503 61.3112 34.1508 61.3093 33.8499C61.3009 32.496 61.1484 31.053 60.6149 29.7988C60.5584 29.6655 60.3829 29.7708 60.4001 29.8894Z" fill="#49312C"/>
</g>
<path id="Vector_29" d="M54.0313 18.4074C54.2727 20.7447 51.1772 21.0276 50.9912 18.685C50.7498 16.3481 53.8455 16.0652 54.0313 18.4074Z" fill="#49312C"/>
<path id="Vector_30" d="M68.1673 17.0964C68.4087 19.4338 65.3132 19.7167 65.1272 17.374C64.8858 15.0369 67.9812 14.754 68.1673 17.0964Z" fill="#49312C"/>
<g id="Group_26">
<path id="Vector_31" d="M50.2433 15.8171C50.3661 15.7969 50.4634 15.7231 50.5593 15.648C50.6548 15.5732 50.7308 15.5176 50.8291 15.4392C50.9717 15.3258 51.158 15.1978 51.3371 15.094C51.4296 15.0403 51.5243 14.9899 51.6205 14.9429C51.6687 14.9194 51.7169 14.8962 51.7653 14.8736C51.7924 14.8612 51.8195 14.8489 51.8466 14.837C51.8586 14.8317 51.8967 14.8156 51.8634 14.8295C51.9677 14.7864 52.0736 14.7478 52.1808 14.713C52.305 14.673 52.4352 14.6478 52.5514 14.5876C52.8511 14.433 52.7126 13.9376 52.3791 13.9511C52.1161 13.9619 51.8372 14.1 51.5996 14.2043C51.387 14.2978 51.1846 14.4095 50.9914 14.5382C50.7869 14.6742 50.5874 14.825 50.4071 14.9921C50.2282 15.1578 50.0149 15.3793 50.0031 15.6341C49.9974 15.7684 50.129 15.8358 50.2433 15.8171Z" fill="#49312C"/>
</g>
<g id="Group_27">
<path id="Vector_32" d="M67.9977 14.0952C68.0701 13.855 67.7836 13.6857 67.61 13.5924C67.4189 13.4898 67.2231 13.4016 67.0169 13.334C66.8332 13.2738 66.646 13.2242 66.4563 13.1858C66.2408 13.1422 66.007 13.0993 65.7862 13.1029C65.6093 13.106 65.4618 13.2352 65.4386 13.4098C65.4175 13.5675 65.5179 13.7711 65.6922 13.7982C65.8073 13.8161 65.9234 13.824 66.0392 13.8372C66.0607 13.8396 66.0914 13.8437 66.0521 13.8384C66.0761 13.8418 66.1 13.8454 66.1238 13.849C66.1715 13.8564 66.2195 13.8643 66.2672 13.8722C66.464 13.9056 66.6587 13.9504 66.85 14.007C67.0344 14.0614 67.2202 14.1151 67.4014 14.1794C67.5753 14.2417 67.9205 14.3508 67.9977 14.0952Z" fill="#49312C"/>
</g>
<g id="Group_28">
<path id="Vector_33" d="M72.7024 45.8791C72.9887 45.7734 73.2886 45.7094 73.5893 45.6595C73.73 45.6362 73.8724 45.6233 74.0146 45.613C74.175 45.6015 74.3387 45.6132 74.4951 45.5713C74.7022 45.5156 74.6866 45.2291 74.4951 45.1663C74.3318 45.1128 74.151 45.1306 73.982 45.1428C73.8149 45.155 73.6478 45.1812 73.4833 45.214C73.1608 45.2788 72.8566 45.4006 72.5586 45.5382C72.3687 45.6262 72.5037 45.9525 72.7024 45.8791Z" fill="#49312C"/>
</g>
<g id="Group_29">
<path id="Vector_34" d="M73.5534 46.4568C74.3911 46.3134 75.3364 46.399 76.1401 46.6649C76.9653 46.938 77.7044 47.4364 78.2537 48.1114C79.2492 49.3339 79.7855 51.3303 78.9413 52.7712C78.4942 53.5343 77.5853 53.9939 76.7131 53.7254C76.4328 53.6391 76.2393 54.0733 76.5102 54.2064C77.3741 54.6305 78.3959 54.3538 79.0614 53.6897C79.7771 52.9757 80.0288 51.8959 79.9739 50.9129C79.8641 48.945 78.5956 47.1471 76.7828 46.3784C76.2734 46.1624 75.7375 46.0293 75.1868 45.9754C74.5896 45.9171 74.0448 46.0073 73.475 46.1725C73.2899 46.2264 73.3695 46.4882 73.5534 46.4568Z" fill="#49312C"/>
</g>
<g id="Group_30">
<path id="Vector_35" d="M75.6106 51.3778C75.8463 51.6508 75.9967 52.0874 76.0307 52.442C76.0676 52.8273 76.0062 53.2066 75.7957 53.536C75.3697 54.2028 74.5298 54.3692 73.8103 54.1642C73.4984 54.0755 73.2877 54.5423 73.5857 54.6967C74.327 55.081 75.2582 54.8796 75.8892 54.3708C76.533 53.852 76.7818 52.9618 76.5634 52.173C76.5044 51.9604 76.4162 51.7592 76.2844 51.5815C76.146 51.3953 75.9873 51.2655 75.8003 51.1313C75.6478 51.0222 75.5013 51.2512 75.6106 51.3778Z" fill="#49312C"/>
</g>
<g id="Group_31">
<path id="Vector_36" d="M72.3086 52.0846C72.726 52.5729 72.6893 53.5183 72.258 53.982C71.7739 54.5027 71.0762 54.5248 70.4804 54.1942C70.11 53.9887 69.7626 53.7753 69.3481 53.6679C68.9489 53.5643 68.5394 53.5255 68.1359 53.4459C67.3795 53.297 66.3694 52.9577 66.4123 52.0086C66.4231 51.771 66.0345 51.7698 66.0426 52.0086C66.0671 52.735 66.5458 53.2347 67.1268 53.6089C67.8149 54.052 68.7127 54.0923 69.4588 54.4114C69.8281 54.5694 70.1503 54.8158 70.5243 54.9652C70.8489 55.0947 71.1865 55.1225 71.5303 55.0652C72.2002 54.9535 72.7969 54.526 73.0508 53.888C73.1875 53.5449 73.2211 53.1575 73.1441 52.7954C73.0621 52.409 72.8197 52.1174 72.543 51.8496C72.3879 51.6993 72.1712 51.9239 72.3086 52.0846Z" fill="#49312C"/>
</g>
<g id="Group_32">
<path id="Vector_37" d="M66.1331 51.1122C66.1396 50.8206 66.2379 50.5123 66.3062 50.2294C66.375 49.9446 66.4606 49.6648 66.5654 49.391C66.7678 48.8623 67.0646 48.3543 67.4393 47.9294C68.1986 47.0682 69.1818 46.6178 70.2742 46.3348C70.5779 46.2562 70.5254 45.7503 70.1984 45.7748C68.9608 45.8676 67.7613 46.5763 66.9567 47.5029C66.535 47.9887 66.2087 48.5411 65.989 49.1455C65.8754 49.4581 65.8018 49.7837 65.7618 50.1138C65.7203 50.4574 65.774 50.771 65.7886 51.1122C65.798 51.3332 66.1281 51.3349 66.1331 51.1122Z" fill="#49312C"/>
</g>
<g id="Group_33">
<path id="Vector_38" d="M72.8008 36.934C73.077 37.2009 73.3115 37.5068 73.5757 37.7859C73.8296 38.0539 74.0904 38.3155 74.3434 38.5847C74.8596 39.1343 75.3681 39.6862 75.8248 40.2875C76.7102 41.4529 77.4002 42.7648 77.6467 44.2199C77.7802 45.0075 77.7759 45.8593 77.6021 46.6397C77.528 46.9718 78.0116 47.1072 78.1128 46.7805C79.0679 43.6912 77.189 40.6473 75.1055 38.5109C74.7857 38.1829 74.4491 37.8729 74.1082 37.567C73.7651 37.2589 73.3791 37.005 73.036 36.6991C72.877 36.5579 72.6457 36.7844 72.8008 36.934Z" fill="#49312C"/>
</g>
</g>
</g>
<g id="Group_34">
<g id="Group_35">
<path id="Vector_39" d="M35.2356 50.8388C34.8165 50.7937 16.9426 50.921 16.7194 50.798C15.9098 47.9723 12.7827 44.7622 13.8978 41.8459C16.0349 40.5613 18.8453 42.7574 21.2862 42.0763C26.9348 42.0415 29.7541 36.8307 32.1703 39.2273C34.9495 42.2352 35.7647 47.3226 35.2356 50.8388Z" fill="#F1F1F1"/>
<path id="Vector_40" d="M38.4058 50.9184C37.8287 53.0237 34.7493 53.7449 33.6517 51.6998C32.9056 52.9362 30.9504 52.7818 30.3825 51.4607C26.9293 52.8007 26.9458 46.8711 29.6246 45.8634C33.9862 44.7927 34.939 44.6644 32.4913 40.2345C28.2901 45.3741 20.0074 45.9347 14.577 42.458C14.4674 46.0958 19.6693 46.1341 20.507 49.3267C21.0942 50.8978 19.3344 52.8393 17.7743 51.9719C17.1117 52.7854 15.8227 53.396 14.8316 52.8503C14.6995 52.8211 14.5674 52.7842 14.4389 52.7376C11.3564 55.3361 8.452 51.0872 9.77448 48.0905C10.604 45.6745 12.6702 43.9759 13.6925 41.6649C7.20169 38.1278 10.4933 29.8446 9.7239 23.9975C9.07416 19.2669 5.74783 15.3759 1.52745 13.3407C-4.26522 7.52235 12.705 6.66308 17.1678 18.351L23.3232 17.9039C21.7693 4.8201 39.6945 -0.961551 35.0143 7.10542C31.9469 9.60269 30.0852 13.4627 30.6294 17.4589C30.8735 22.0082 35.2202 24.4437 36.7537 28.4089C38.1011 32.0942 36.7311 36.4853 33.5347 38.7569C33.5911 43.4053 39.8311 46.1173 38.4058 50.9184Z" fill="#755A58"/>
<path id="Vector_41" d="M32.9088 36.1549C31.9963 37.6865 30.1558 37.7172 28.5823 37.8399C26.9018 40.1466 22.68 41.2761 20.3393 39.739C13.9355 43.2629 11.2239 35.3904 16.0621 31.7406C16.0801 26.5842 23.0322 25.279 16.9159 18.938C16.5867 18.5573 17.4117 18.435 17.6356 18.3123C27.5518 14.4335 18.7929 23.4545 25.4902 26.1316C29.641 27.2733 28.1243 29.3404 31.717 30.555C31.7151 30.5531 31.7132 30.5512 31.7113 30.5512C33.3764 31.7066 34.0244 34.3645 32.9088 36.1549Z" fill="#F1F1F1"/>
<path id="Vector_42" d="M29.2866 37.1353C27.8749 36.5325 26.5587 35.5519 25.6327 34.3246C24.7857 33.2016 24.3297 31.8799 24.152 30.5054C23.3843 31.4617 22.2067 32.0254 21.0117 31.2781C21.1431 31.7341 21.2366 32.2021 21.2925 32.6821C21.4819 34.3062 21.379 36.1 20.7209 37.6129C20.3975 38.3563 19.9007 38.9898 19.2929 39.5227C18.7456 40.0027 18.0992 40.4647 17.3838 40.6596C19.9086 41.3321 23.3512 36.3527 22.9518 32.5349C24.3455 35.8981 28.8013 39.6894 30.9617 37.5994C30.3878 37.5215 29.8277 37.3664 29.2866 37.1353Z" fill="#EAAC8E"/>
<path id="Vector_43" d="M16.3355 27.5672C16.852 30.0187 13.6932 30.6463 13.2334 28.1836C12.717 25.7324 15.8757 25.1044 16.3355 27.5672Z" fill="#49312C"/>
<path id="Vector_44" d="M27.2222 25.303C27.6822 27.7657 30.841 27.138 30.3243 24.6863C29.8642 22.2238 26.7057 22.8515 27.2222 25.303Z" fill="#49312C"/>
<path id="Vector_45" d="M36.1617 5.47363C34.0859 11.2208 39.3238 21.1612 33.323 23.6865C32.4956 21.6196 30.1017 20.69 29.2889 18.6143C27.9276 13.6209 30.562 5.51343 36.1617 5.47363Z" fill="#EAAC8E"/>
<path id="Vector_46" d="M11.305 19.9469C12.364 21.4638 10.5208 29.7773 8.70491 28.1721C3.16445 25.1416 4.45456 17.5916 0.841963 13.0871C0.636015 11.5678 2.74392 12.2911 3.57323 12.4906C7.16473 13.5007 10.2024 16.3698 11.305 19.9469Z" fill="#EAAC8E"/>
</g>
<g id="Group_36">
<g id="Group_37">
<path id="Vector_47" d="M11.1411 23.9234C11.0102 24.3132 10.8342 24.6885 10.6944 25.0764C10.5556 25.4619 10.4467 25.8594 10.3261 26.2509C10.0811 27.0462 9.85767 27.8484 9.6323 28.6494C9.19595 30.2009 8.80683 31.7914 8.78549 33.4119C8.74809 36.2661 9.98905 39.0696 12.1401 40.9492C13.2761 41.9416 14.6264 42.6767 16.0788 43.084C16.3919 43.1717 16.5247 42.6877 16.2128 42.5975C13.663 41.8601 11.5177 40.0581 10.3671 37.6637C9.77639 36.4347 9.4508 35.0635 9.43162 33.7001C9.40981 32.1498 9.7668 30.6351 10.1669 29.1474C10.3952 28.2984 10.6486 27.4559 10.867 26.6043C10.9728 26.1915 11.0878 25.7798 11.1849 25.3648C11.29 24.9148 11.3341 24.4542 11.4374 24.0052C11.4818 23.8117 11.2039 23.7364 11.1411 23.9234Z" fill="#49312C"/>
</g>
<g id="Group_38">
<path id="Vector_48" d="M22.6739 32.0086C22.7024 31.9408 22.6312 32.0959 22.6348 32.086C22.5878 32.2136 22.5938 32.3565 22.5696 32.4905C22.4996 32.8782 22.4711 33.2702 22.4337 33.6627C22.3476 34.5661 22.2673 35.4992 21.9721 36.3632C21.6068 37.433 20.9242 38.3685 20.0601 39.0897C19.1383 39.8593 17.915 40.4707 16.6854 40.393C15.4446 40.3148 14.2224 39.3628 14.1461 38.0652C14.1281 37.7584 13.647 37.7569 13.6669 38.0652C13.7433 39.2647 14.6144 40.2429 15.7084 40.6697C17.0011 41.1736 18.5422 40.8747 19.7158 40.2038C20.811 39.5781 21.7096 38.6131 22.2838 37.4915C22.7919 36.4987 22.9798 35.4018 23.0647 34.2992C23.1045 33.7821 23.1448 33.2524 23.1064 32.7341C23.0875 32.48 23.0695 32.203 22.9882 32.0084C22.924 31.8547 22.7384 31.8552 22.6739 32.0086Z" fill="#49312C"/>
</g>
<g id="Group_39">
<path id="Vector_49" d="M13.7822 36.9617C13.6167 36.5906 13.6035 36.0686 13.6786 35.6767C13.762 35.241 13.956 34.8332 14.2152 34.475C14.7862 33.6855 15.6594 33.1741 16.4518 32.6371C16.6633 32.4937 16.4729 32.1559 16.2495 32.2909C15.3185 32.8524 14.306 33.4052 13.6632 34.3127C13.3674 34.7301 13.1768 35.2317 13.1209 35.7402C13.095 35.9763 13.1013 36.2185 13.1468 36.4523C13.1986 36.7177 13.3369 36.9186 13.4899 37.1324C13.6179 37.3113 13.8709 37.1607 13.7822 36.9617Z" fill="#49312C"/>
</g>
<g id="Group_40">
<path id="Vector_50" d="M17.2769 18.3395C16.6329 15.7089 14.7837 13.3866 12.6624 11.7666C10.2984 9.96128 7.3576 8.97374 4.38466 8.95719C3.1425 8.95024 1.5455 8.99819 0.613103 9.94881C0.135754 10.4355 -0.0570061 11.1236 0.0144404 11.7944C0.0949974 12.5487 0.450309 13.2138 0.831517 13.8561C1.65051 15.2361 2.34364 16.6727 2.85335 18.1966C3.35684 19.7022 3.65078 21.2652 4.09912 22.7864C4.84259 25.3084 6.30772 28.078 9.06968 28.7819C9.38016 28.861 9.69951 28.9047 10.0191 28.9205C10.4061 28.9397 10.4051 28.3376 10.0191 28.3189C7.3751 28.1912 5.67118 25.6759 4.89222 23.4069C4.41295 22.0106 4.12956 20.5584 3.73205 19.1388C3.32879 17.6986 2.78263 16.2987 2.09861 14.9685C1.7656 14.321 1.37192 13.7091 1.02955 13.0673C0.705168 12.4593 0.423936 11.7177 0.634679 11.0246C0.997906 9.8299 2.62919 9.73136 3.65413 9.6846C6.44126 9.55753 9.28114 10.3195 11.6087 11.8656C12.8022 12.6583 13.8655 13.6595 14.741 14.793C15.6209 15.9323 16.2877 17.2006 16.8871 18.5037C16.9914 18.7293 17.3323 18.566 17.2769 18.3395Z" fill="#49312C"/>
</g>
<g id="Group_41">
<path id="Vector_51" d="M12.4815 21.4292C12.0581 20.8435 11.6783 20.2154 11.3532 19.5699C11.0238 18.9157 10.8061 18.2364 10.5781 17.5435C10.4601 17.1851 9.93363 17.3299 10.013 17.6994C10.1715 18.4364 10.4947 19.1643 10.8442 19.8286C11.2 20.5055 11.6397 21.1173 12.1542 21.6819C12.3108 21.8534 12.6217 21.6229 12.4815 21.4292Z" fill="#49312C"/>
</g>
<g id="Group_42">
<path id="Vector_52" d="M11.4677 21.8764C11.1875 21.4859 10.9177 21.0883 10.6341 20.6999C10.3464 20.306 10.0683 19.8946 9.75015 19.5244C9.55115 19.2931 9.15028 19.5985 9.32458 19.8529C9.6003 20.2554 9.9266 20.6299 10.2332 21.0092C10.5353 21.383 10.8501 21.746 11.1553 22.1174C11.2973 22.2902 11.5996 22.0603 11.4677 21.8764Z" fill="#49312C"/>
</g>
<g id="Group_43">
<path id="Vector_53" d="M10.8107 22.0502C10.5614 22.1389 10.3106 22.2183 10.0586 22.2988C9.80714 22.3792 9.56091 22.4806 9.31324 22.5719C9.17682 22.6223 9.06942 22.7633 9.11857 22.915C9.16076 23.0454 9.3166 23.168 9.46165 23.1097C9.71987 23.0061 9.98312 22.9105 10.237 22.7968C10.4737 22.6908 10.6935 22.587 10.9316 22.4883C11.0447 22.4413 11.1255 22.3377 11.0903 22.2089C11.0594 22.097 10.9268 22.0087 10.8107 22.0502Z" fill="#49312C"/>
</g>
<g id="Group_44">
<path id="Vector_54" d="M10.5616 23.5386C10.4748 23.5607 10.3859 23.5729 10.2993 23.5957C10.2061 23.6204 10.1147 23.6642 10.0275 23.704C9.8546 23.7829 9.69708 23.897 9.54963 24.0155C9.2684 24.2411 9.03224 24.5588 8.88528 24.8865C8.82678 25.0169 8.84332 25.1874 8.98357 25.2615C9.10657 25.3265 9.29166 25.3008 9.35855 25.1632C9.43023 25.0155 9.51367 24.8716 9.60933 24.7379C9.62251 24.7196 9.63594 24.7017 9.64913 24.6837C9.61221 24.734 9.65728 24.6741 9.66207 24.6679C9.68581 24.6388 9.71003 24.6101 9.73496 24.5823C9.7925 24.5178 9.85412 24.4578 9.91573 24.3974C9.97447 24.3399 10.0349 24.2845 10.0984 24.2325C10.1128 24.2207 10.1272 24.209 10.1421 24.1975C10.1023 24.2284 10.161 24.184 10.1639 24.1821C10.1974 24.1577 10.2308 24.1332 10.2643 24.109C10.3312 24.0608 10.4029 24.0198 10.47 23.9721C10.5408 23.9217 10.6096 23.8757 10.6897 23.8419C10.7647 23.81 10.7872 23.7019 10.7575 23.6345C10.7242 23.5588 10.6436 23.5178 10.5616 23.5386Z" fill="#49312C"/>
</g>
<g id="Group_45">
<path id="Vector_55" d="M14.8534 19.8416C15.0481 19.7328 15.283 19.6721 15.4878 19.5788C15.6949 19.4846 15.9013 19.389 16.1087 19.2957C16.5259 19.108 16.9486 18.9318 17.3792 18.7771C18.2325 18.471 19.1145 18.2393 20.0078 18.0861C20.9035 17.9325 21.8146 17.8653 22.7233 17.879C23.1766 17.8857 23.6298 17.9133 24.0808 17.9615C24.5298 18.0097 24.9757 18.124 25.425 18.1552C25.76 18.1785 25.7921 17.6932 25.5008 17.5951C25.1587 17.48 24.7756 17.4503 24.4186 17.4045C24.0532 17.3575 23.6861 17.324 23.3181 17.3043C22.5821 17.265 21.8434 17.2801 21.1095 17.3487C19.6556 17.4846 18.2253 17.8174 16.869 18.3602C16.4914 18.5115 16.1183 18.6745 15.7577 18.8632C15.5827 18.9548 15.4091 19.0531 15.2418 19.1578C15.0466 19.2801 14.8853 19.4463 14.6935 19.5681C14.5223 19.6774 14.6745 19.9416 14.8534 19.8416Z" fill="#49312C"/>
</g>
<g id="Group_46">
<path id="Vector_56" d="M19.7841 39.6768C19.8678 39.8267 19.9112 39.9753 20.0306 40.105C20.1265 40.2093 20.2504 40.2987 20.3688 40.3757C20.6302 40.5457 20.9354 40.6557 21.2332 40.7435C21.9047 40.9417 22.6235 41.0161 23.3224 41.0026C24.0133 40.9895 24.7069 40.8844 25.3703 40.6907C26.0208 40.5008 26.7906 40.2486 27.2917 39.7713C27.4763 39.5955 27.2872 39.2381 27.0342 39.3287C26.4504 39.5378 25.9239 39.8763 25.3267 40.0628C24.73 40.2489 24.1133 40.3591 23.4888 40.3884C22.8757 40.4172 22.2701 40.3639 21.6688 40.2433C21.3897 40.1872 21.1092 40.1249 20.8448 40.0175C20.705 39.9609 20.5683 39.8928 20.4415 39.8113C20.3238 39.7358 20.13 39.6358 20.0471 39.5234C19.933 39.3694 19.6865 39.502 19.7841 39.6768Z" fill="#49312C"/>
</g>
<g id="Group_47">
<path id="Vector_57" d="M13.3559 41.5409C13.1399 41.8303 13.0337 42.2283 12.8735 42.5529C12.7052 42.8941 12.5089 43.2204 12.3065 43.5424C11.8963 44.195 11.4247 44.8061 10.9639 45.4233C10.0596 46.6345 9.16479 47.9268 8.90802 49.4497C8.77352 50.2476 8.78407 51.1637 9.201 51.8834C9.34317 52.1287 9.70711 51.9616 9.64765 51.6952C9.54744 51.2461 9.45489 50.8105 9.46256 50.3471C9.47024 49.886 9.54672 49.4307 9.67714 48.9891C9.94663 48.0761 10.4525 47.2554 10.9948 46.481C11.5415 45.7004 12.143 44.9591 12.6618 44.159C12.9179 43.7644 13.1476 43.3563 13.3382 42.926C13.5062 42.5467 13.7388 42.0557 13.6882 41.6313C13.6671 41.4505 13.4657 41.394 13.3559 41.5409Z" fill="#49312C"/>
</g>
<g id="Group_48">
<path id="Vector_58" d="M9.93586 52.6099C10.0471 52.7762 10.1622 52.9433 10.3022 53.0872C10.4451 53.2342 10.6213 53.3524 10.8057 53.4401C11.1785 53.6175 11.6062 53.723 12.0205 53.6789C12.1526 53.6648 12.2665 53.5758 12.2665 53.4329C12.2665 53.3059 12.1538 53.179 12.0205 53.1869C11.6707 53.2078 11.3499 53.1735 11.0255 53.0347C10.7115 52.9004 10.3701 52.711 10.1524 52.4427C10.0543 52.3217 9.84931 52.4801 9.93586 52.6099Z" fill="#49312C"/>
</g>
<g id="Group_49">
<path id="Vector_59" d="M10.822 48.8196C11.1269 47.8136 12.154 47.207 13.0835 46.8826C14.1449 46.5119 15.2996 46.1991 16.4319 46.2645C17.4576 46.3237 18.3943 46.7572 18.9947 47.6088C19.5835 48.4439 20.0026 49.5211 19.9815 50.5511C19.9601 51.605 19.1081 52.7817 17.9395 52.3988C17.6473 52.3029 17.5238 52.7609 17.8129 52.858C18.9187 53.2298 20.0268 52.4744 20.4169 51.4513C20.8698 50.2631 20.4689 48.9447 19.904 47.867C19.337 46.7853 18.431 46.0077 17.22 45.7579C15.8942 45.4844 14.5314 45.8267 13.2703 46.2362C12.0258 46.6405 10.7388 47.3257 10.5016 48.7311C10.4669 48.9385 10.7587 49.0282 10.822 48.8196Z" fill="#49312C"/>
</g>
<g id="Group_50">
<path id="Vector_60" d="M16.9311 50.8547C17.1708 51.2493 17.4463 51.782 17.3171 52.257C17.2101 52.6492 16.7297 52.789 16.3863 52.8895C15.9735 53.01 15.4669 53.1587 15.0701 52.9141C14.9327 52.8295 14.821 52.6876 14.7584 52.5305C14.6884 52.3543 14.709 52.1771 14.7119 51.9913C14.7162 51.7199 14.3381 51.6214 14.2039 51.8537C13.9816 52.2385 14.0998 52.7892 14.3499 53.135C14.6604 53.5639 15.1437 53.7562 15.6683 53.7274C16.1564 53.7008 16.6688 53.5598 17.1114 53.3539C17.5782 53.1369 17.8867 52.7358 17.9172 52.2138C17.9342 51.9249 17.8527 51.6442 17.7208 51.3898C17.5784 51.1153 17.372 50.9007 17.1816 50.6612C17.0682 50.5176 16.8385 50.7022 16.9311 50.8547Z" fill="#49312C"/>
</g>
<g id="Group_51">
<path id="Vector_61" d="M14.318 52.0098C14.2621 52.2133 14.1398 52.4231 14.0269 52.6C13.92 52.7674 13.7965 52.9266 13.6421 53.0532C13.3405 53.3001 12.9698 53.409 12.592 53.3612C12.2637 53.3198 11.9367 53.1133 11.7634 52.812C11.5797 52.4924 11.5881 52.1275 11.7269 51.7762C11.779 51.6446 11.6807 51.4847 11.5601 51.4363C11.4193 51.3797 11.2858 51.4341 11.2002 51.5542C10.6799 52.2831 11.0384 53.3893 11.7653 53.829C12.5507 54.3042 13.6227 54.1344 14.2105 53.4303C14.3741 53.2344 14.4994 53.0275 14.5822 52.7856C14.6656 52.5408 14.6622 52.3073 14.6443 52.0539C14.6311 51.8733 14.3697 51.8211 14.318 52.0098Z" fill="#49312C"/>
</g>
<g id="Group_52">
<path id="Vector_62" d="M12.8181 25.6535C13.0099 25.6024 13.1619 25.49 13.3317 25.3917C13.5014 25.2934 13.6745 25.1982 13.8553 25.1212C13.9078 25.0989 13.8244 25.1335 13.8769 25.1126C13.8982 25.1042 13.9196 25.0956 13.9411 25.0874C13.9841 25.0711 14.0275 25.0555 14.0709 25.0402C14.1634 25.0076 14.2567 24.9776 14.3514 24.952C14.4406 24.9277 14.5307 24.9066 14.6213 24.8891C14.6724 24.8793 14.7237 24.8707 14.7753 24.8628C14.833 24.8539 14.7309 24.8678 14.7887 24.8609C14.8172 24.8575 14.846 24.8544 14.8745 24.8515C15.0771 24.8309 15.2377 24.6846 15.2085 24.4665C15.179 24.2471 14.9862 24.1543 14.7841 24.1838C14.3566 24.2461 13.9419 24.3804 13.5587 24.5806C13.3674 24.6806 13.1876 24.7964 13.0188 24.9309C12.8395 25.0738 12.6827 25.2193 12.6038 25.4396C12.5583 25.5681 12.6978 25.6856 12.8181 25.6535Z" fill="#49312C"/>
</g>
<g id="Group_53">
<path id="Vector_63" d="M30.3754 20.1219C30.6015 20.4396 30.79 20.7831 31.0089 21.1066C31.2467 21.458 31.5121 21.7918 31.7667 22.1313C32.228 22.7462 32.7073 23.3471 33.1801 23.9531C34.0547 25.0742 34.9233 26.2162 35.5678 27.4893C36.8612 30.0436 36.9703 33.1402 35.7548 35.7464C35.1321 37.0815 34.2096 38.246 33.0587 39.165C32.8044 39.3681 33.1635 39.7196 33.4155 39.5218C35.6052 37.802 37.0005 35.1885 37.2048 32.4119C37.3163 30.899 37.0725 29.3649 36.492 27.9633C35.9188 26.5792 35.0674 25.342 34.1554 24.1615C33.6107 23.4566 33.0604 22.7534 32.497 22.0632C32.1971 21.6959 31.8959 21.3283 31.5895 20.9665C31.2834 20.6048 30.9266 20.2921 30.6164 19.9356C30.5035 19.8059 30.2738 19.979 30.3754 20.1219Z" fill="#49312C"/>
</g>
<path id="Vector_64" d="M25.9061 31.0295C25.6615 31.2 25.3527 31.2901 25.06 31.24C24.7651 31.188 24.4925 30.9813 24.4043 30.6965C24.3844 30.6303 24.3722 30.5641 24.3681 30.496L24.322 30.5001C24.2779 30.843 23.1048 31.8797 22.7821 31.7595C22.5275 31.9943 21.1738 31.561 21.0034 31.2601L20.9552 31.2642C20.9772 31.3323 20.9952 31.4006 21.0012 31.4728C21.0293 31.7696 20.8569 32.0664 20.6042 32.2268C20.3515 32.3853 20.0326 32.4193 19.7399 32.3551C18.9417 32.1827 18.4184 31.3143 18.4706 30.4982C18.5227 29.684 19.046 28.9542 19.7039 28.4728C20.3637 27.9894 21.1496 27.7168 21.9298 27.4742C22.744 27.4001 23.6622 27.2335 24.4565 27.4282C25.2487 27.6207 26.0106 28.094 26.3717 28.8278C26.7304 29.5617 26.5779 30.5644 25.9061 31.0295Z" fill="#49312C"/>
<g id="Group_54">
<path id="Vector_65" d="M22.6644 31.9518C22.6709 32.1618 22.7457 32.3349 22.809 32.5349C22.9449 32.9643 23.1585 33.3742 23.3654 33.7734C23.8639 34.7353 24.4278 35.7102 25.2127 36.4695C27.0476 38.2441 30.1807 39.0454 32.4037 37.4987C33.4909 36.742 34.1551 35.3112 33.7122 34.011C33.6132 33.7204 33.1488 33.8461 33.25 34.1386C33.629 35.2333 33.0956 36.4495 32.1579 37.0784C31.1742 37.7382 29.8783 37.7701 28.7539 37.5248C27.61 37.2753 26.5508 36.7337 25.7038 35.9226C24.9967 35.2455 24.5012 34.3855 24.0169 33.5435C23.7833 33.1371 23.5728 32.7111 23.3062 32.3253C23.1763 32.1371 23.0842 31.9666 22.9425 31.8367C22.8428 31.7451 22.6596 31.8046 22.6644 31.9518Z" fill="#49312C"/>
</g>
<g id="Group_55">
<path id="Vector_66" d="M33.5047 33.0755C33.5591 32.8326 33.6092 32.6192 33.5773 32.367C33.5467 32.1251 33.4529 31.888 33.3434 31.6717C33.1163 31.2241 32.7524 30.8429 32.3412 30.56C31.4124 29.9213 30.2175 29.8043 29.1342 29.6398C28.8851 29.6019 28.7705 29.9735 29.0276 30.0265C29.9964 30.2262 31.0216 30.3713 31.8739 30.9081C32.2376 31.1373 32.5656 31.4406 32.7941 31.8067C33.0065 32.1469 33.1878 32.6218 33.1726 33.0304C33.1655 33.2193 33.4628 33.2627 33.5047 33.0755Z" fill="#49312C"/>
</g>
<g id="Group_56">
<path id="Vector_67" d="M23.2493 17.1101C23.3044 15.7152 23.4313 14.3388 23.789 12.9849C24.1443 11.6411 24.7044 10.3562 25.456 9.18649C26.8274 7.05197 28.8641 5.34876 31.1705 4.30511C31.7402 4.04738 32.3338 3.82537 32.9368 3.65922C33.5117 3.50098 34.1574 3.38638 34.7395 3.56979C36.2264 4.03827 35.8282 6.02367 35.6769 7.16225C35.4717 8.70722 35.429 10.2716 35.558 11.825C35.6867 13.3757 36.0083 14.9024 36.1562 16.4508C36.2979 17.936 36.254 19.41 35.7227 20.8184C35.2751 22.0047 34.4729 23.0526 33.3096 23.6007C32.9598 23.7654 33.2648 24.2849 33.6134 24.1202C35.9857 22.9984 36.8301 20.1919 36.7997 17.7533C36.7788 16.0835 36.4321 14.4431 36.2252 12.7917C36.0171 11.1323 35.9903 9.45477 36.1634 7.79065C36.3115 6.36675 36.7968 4.73068 35.7414 3.52616C34.797 2.44823 33.1741 2.81385 31.9986 3.21448C29.4261 4.09125 27.128 5.75898 25.4896 7.92539C23.7264 10.2563 22.7012 13.1489 22.7286 16.0789C22.7319 16.4443 22.776 16.8058 22.8309 17.1667C22.8683 17.4129 23.2402 17.3393 23.2493 17.1101Z" fill="#49312C"/>
</g>
<g id="Group_57">
<path id="Vector_68" d="M28.8444 18.2415C29.3519 16.8332 29.5526 15.2091 29.2834 13.7255C29.2249 13.403 28.6835 13.474 28.708 13.8034C28.7617 14.5306 28.8204 15.2424 28.7713 15.9727C28.7226 16.6968 28.6099 17.4247 28.4426 18.1307C28.38 18.3945 28.7542 18.4918 28.8444 18.2415Z" fill="#49312C"/>
</g>
<g id="Group_58">
<path id="Vector_69" d="M29.9338 18.2633C30.0727 17.8085 30.2232 17.3577 30.3582 16.9015C30.4922 16.4481 30.6469 15.9921 30.7444 15.5291C30.8164 15.188 30.3311 15.0525 30.2218 15.385C30.0738 15.8346 29.9787 16.3064 29.8669 16.766C29.7545 17.2285 29.6586 17.6941 29.5502 18.1573C29.4917 18.4066 29.859 18.5085 29.9338 18.2633Z" fill="#49312C"/>
</g>
<g id="Group_59">
<path id="Vector_70" d="M30.2461 18.5452C30.5117 18.5454 30.7755 18.555 31.0409 18.5641C31.3048 18.5732 31.5714 18.5603 31.8356 18.5576C31.9814 18.5562 32.1212 18.4303 32.1145 18.2788C32.108 18.1325 31.9917 17.9937 31.8356 18C31.5714 18.0103 31.3044 18.0105 31.0409 18.0326C30.7757 18.0549 30.512 18.0774 30.2461 18.0908C30.1236 18.0971 30.0188 18.1908 30.0188 18.3179C30.019 18.4413 30.1229 18.5452 30.2461 18.5452Z" fill="#49312C"/>
</g>
<g id="Group_60">
<path id="Vector_71" d="M31.0379 19.7037C31.1877 19.7054 31.3472 19.7483 31.4929 19.7833C31.6519 19.8214 31.8073 19.8646 31.9597 19.9248C32.2357 20.0336 32.5188 20.2096 32.7224 20.3897C32.8332 20.4877 33.001 20.4988 33.1101 20.3897C33.2127 20.287 33.2184 20.1036 33.1101 20.002C32.8308 19.7392 32.4829 19.5309 32.1149 19.4191C31.9358 19.3647 31.7425 19.328 31.5555 19.3199C31.3616 19.3115 31.1839 19.3506 30.9938 19.3777C30.8044 19.4045 30.8566 19.7016 31.0379 19.7037Z" fill="#49312C"/>
</g>
<g id="Group_61">
<path id="Vector_72" d="M29.8424 21.8941C29.6933 21.7294 29.4866 21.6592 29.2785 21.5968C29.0618 21.5321 28.8355 21.4997 28.6106 21.4794C28.1769 21.4398 27.735 21.4868 27.3135 21.593C27.1354 21.6378 27.0282 21.8371 27.0761 22.0111C27.1241 22.1859 27.3178 22.3012 27.4943 22.2485C27.8609 22.1392 28.2068 22.0936 28.5899 22.0967C28.7817 22.0984 28.9736 22.1161 29.1637 22.1413C29.3507 22.1663 29.5305 22.2152 29.7194 22.1907C29.8671 22.172 29.9513 22.0145 29.8424 21.8941Z" fill="#49312C"/>
</g>
<g id="Group_62">
<path id="Vector_73" d="M34.3012 40.9466C34.2508 41.371 34.4832 41.862 34.6512 42.2413C34.8418 42.6716 35.0718 43.0795 35.3276 43.4741C35.8464 44.2741 36.4479 45.0157 36.9946 45.7961C37.5369 46.5705 38.0428 47.3912 38.3122 48.3042C38.4427 48.746 38.5192 49.2013 38.5268 49.6624C38.5345 50.1258 38.442 50.5614 38.3415 51.0105C38.2825 51.2745 38.6448 51.4464 38.7882 51.1989C39.5381 49.9043 39.0754 48.1625 38.4496 46.9198C37.7555 45.5415 36.698 44.3967 35.8505 43.1173C35.6162 42.7637 35.3911 42.4007 35.195 42.0243C35.1012 41.8442 35.0137 41.6604 34.9286 41.476C34.8342 41.2715 34.7692 41.038 34.6337 40.8565C34.5244 40.7097 34.3228 40.7658 34.3012 40.9466Z" fill="#49312C"/>
</g>
<g id="Group_63">
<path id="Vector_74" d="M37.8378 51.7582C37.6203 52.0265 37.2787 52.2159 36.9646 52.3502C36.6402 52.4888 36.3192 52.5233 35.9696 52.5022C35.8368 52.4943 35.7236 52.6209 35.7236 52.7482C35.7236 52.8927 35.837 52.98 35.9696 52.9942C36.3839 53.0383 36.8116 52.9328 37.1844 52.7554C37.3645 52.6698 37.5369 52.5552 37.6776 52.413C37.8222 52.267 37.9404 52.0956 38.0543 51.9251C38.1401 51.7971 37.937 51.636 37.8378 51.7582Z" fill="#49312C"/>
</g>
<g id="Group_64">
<path id="Vector_75" d="M37.4883 48.0467C37.2797 46.8093 36.2413 46.1102 35.136 45.6961C33.9234 45.2418 32.5285 44.8503 31.2235 45.0028C30.6344 45.0718 30.0432 45.2348 29.5337 45.5468C29.0286 45.856 28.6239 46.3032 28.3072 46.7997C27.6526 47.8261 27.187 49.1661 27.4579 50.3838C27.7243 51.5809 28.9099 52.5996 30.177 52.1733C30.4657 52.0762 30.3431 51.618 30.0504 51.7142C29.029 52.0489 28.2108 51.1632 28.0415 50.2231C27.8588 49.208 28.2873 48.0872 28.7996 47.2272C29.3304 46.336 30.1489 45.769 31.1796 45.6163C32.3105 45.4487 33.4558 45.7446 34.5299 46.0752C35.5858 46.4003 36.8186 46.9822 37.1682 48.1351C37.231 48.3432 37.5233 48.2543 37.4883 48.0467Z" fill="#49312C"/>
</g>
<g id="Group_65">
<path id="Vector_76" d="M30.8081 49.9764C30.6472 50.1792 30.471 50.3617 30.3363 50.5849C30.1972 50.8158 30.1059 51.0606 30.0778 51.3288C30.0239 51.8438 30.2742 52.3212 30.7153 52.5835C31.1145 52.8208 31.6146 52.9515 32.0714 53.0155C32.5844 53.0874 33.1395 53.0145 33.508 52.6151C33.8419 52.2528 34.0496 51.6249 33.7861 51.1689C33.652 50.9368 33.2737 51.0349 33.278 51.3065C33.2809 51.4926 33.3011 51.669 33.2315 51.8457C33.1697 52.003 33.0572 52.1447 32.9198 52.2293C32.5231 52.4739 32.0165 52.3252 31.6036 52.2047C31.2603 52.1044 30.7798 51.9647 30.6729 51.5724C30.5434 51.0977 30.8194 50.5647 31.0589 50.1701C31.1507 50.0191 30.9232 49.8316 30.8081 49.9764Z" fill="#49312C"/>
</g>
<g id="Group_66">
<path id="Vector_77" d="M33.3461 51.3693C33.3142 51.8158 33.3864 52.2217 33.6588 52.5906C33.9323 52.9613 34.297 53.2492 34.7518 53.3562C35.2035 53.4624 35.6703 53.4132 36.0896 53.2166C36.5039 53.0224 36.7813 52.6666 36.9357 52.2435C37.0949 51.8074 37.0645 51.2535 36.7902 50.8695C36.707 50.7529 36.5694 50.6904 36.4303 50.7515C36.3107 50.804 36.21 50.956 36.2634 51.0915C36.402 51.4425 36.4102 51.809 36.227 52.1272C36.0529 52.4298 35.7259 52.635 35.3984 52.6765C35.0191 52.7244 34.6494 52.6149 34.3483 52.3684C34.1939 52.242 34.0707 52.0826 33.9635 51.9153C33.8503 51.7383 33.7283 51.5283 33.6724 51.325C33.6209 51.138 33.3591 51.1871 33.3461 51.3693Z" fill="#49312C"/>
</g>
</g>
</g>
<g id="Group_67">
<g id="Group_68">
<path id="Vector_78" d="M119.253 26.689C119.938 23.3879 120.141 19.4741 119.459 14.7287C119.581 12.9581 118.364 10.2549 116.76 8.5143C116.762 8.42008 116.726 8.3237 116.631 8.23954C115.667 7.38938 114.544 6.44883 113.168 6.56103C112.601 6.60706 112.037 6.80582 111.628 7.21676C111.167 7.67996 110.995 8.34168 111.033 8.98134C111.115 10.3671 111.859 11.6745 112.529 12.8555C112.847 13.417 113.156 13.9804 113.445 14.5539C113.563 14.8728 113.68 15.1917 113.792 15.5125C114.897 18.6316 115.737 21.8206 115.34 25.0935C116.359 26.065 117.768 26.5828 119.253 26.689Z" fill="#755A58"/>
<path id="Vector_79" d="M115.341 25.0936C115.068 27.342 114.213 29.6299 112.459 31.962C112.938 30.6105 110.746 27.1753 111.672 26.4055C111.662 26.3594 111.65 26.3173 111.638 26.2712C112.647 25.1182 113.216 23.6584 113.567 22.1803C113.976 20.4476 114.185 18.5809 114.003 16.8041C113.958 16.3689 113.878 15.9379 113.732 15.5348C113.588 15.1318 113.379 14.7547 113.076 14.4279C112.547 12.8338 107.451 15.1237 106.483 15.643C105.211 16.5413 104.06 17.4538 102.839 17.987C102.785 18.0573 102.727 18.1254 102.665 18.1915C102.019 18.8753 101.135 18.6708 100.321 18.4764C100.214 18.4502 100.106 18.4263 99.9976 18.4042C99.8694 18.3841 99.7389 18.3582 99.6066 18.326C99.0089 18.2201 98.4028 18.1611 97.7967 18.1546C98.3625 22.6572 97.1671 27.3168 93.543 30.2696C90.535 32.8764 85.5218 34.0797 82.1128 31.2722C81.716 30.8754 81.3364 30.4616 80.9898 30.0238C79.9909 34.3917 81.0113 39.5068 85.9464 40.5387C85.1363 42.141 84.8575 43.9758 85.1504 45.7464C78.9641 47.497 83.9131 55.5523 88.4492 51.6819C89.2413 52.4158 90.617 52.2195 91.2725 51.4031C91.397 52.4899 93.0853 51.2688 93.2356 50.6651C95.7442 50.6812 98.2529 50.6992 100.763 50.7172C101.953 51.9665 104.211 52.1629 105.658 51.1624C106.336 52.2933 107.856 52.7385 109.047 52.2072C110.988 52.8992 112.29 50.5208 112.003 48.8464C107.665 42.6591 116.732 38.8355 119.253 26.6889C117.769 26.5829 116.359 26.065 115.341 25.0936Z" fill="#F1F1F1"/>
<path id="Vector_80" d="M93.543 30.2698C97.1669 27.317 98.3625 22.6574 97.7967 18.1548C97.6806 18.1536 97.5648 18.151 97.4488 18.1539C96.5485 18.174 95.6181 18.4425 94.7617 18.0294C94.1803 17.7468 93.8453 17.1793 93.3761 16.7681C91.0539 15.238 89.0467 12.7055 86.0286 11.9776C86.0126 11.9354 85.9905 11.8954 85.9565 11.8572C85.6839 11.5424 85.2226 11.4763 84.8435 11.6165C84.4165 11.7769 84.1658 12.144 84.0054 12.553C83.827 13.0061 83.7145 13.4914 83.5942 13.9628C83.4578 14.4881 83.3374 15.0177 83.2331 15.549C82.8502 17.5041 82.6256 19.6056 82.9766 21.5809C83.101 22.2788 83.3475 22.9806 83.7867 23.538C83.1612 24.6368 82.6476 25.8162 82.1746 26.7946C81.6603 27.7579 81.2549 28.8651 80.99 30.0241C81.3367 30.4621 81.7162 30.8757 82.113 31.2725C85.5218 34.0797 90.535 32.8766 93.543 30.2698Z" fill="#E7B387"/>
<path id="Vector_81" d="M110.075 23.2469C110.624 23.6778 110.979 24.2196 111.23 24.8175C111.342 24.625 111.451 24.4335 111.56 24.2532C113.131 21.6499 114.144 17.957 112.22 15.2739C111.942 15.3418 111.669 15.4314 111.405 15.5451C109.616 16.3152 108.204 17.8954 107.326 19.664C107.054 20.4737 106.908 21.3059 106.94 22.093C108.067 22.2179 109.167 22.5341 110.075 23.2469Z" fill="#EAAC8E"/>
<path id="Vector_82" d="M89.1917 17.817C89.11 17.1531 88.8616 16.5132 88.5638 15.9191C88.2466 15.2864 87.8779 14.6657 87.431 14.115C86.968 13.5441 86.4382 13.0848 85.7623 12.7865C85.4593 12.6527 85.1471 12.5425 84.834 12.4341C84.8292 12.4456 84.8261 12.4571 84.8201 12.4688C84.3947 13.285 84.0507 14.1375 83.7906 15.0203C83.5849 15.7182 83.4345 16.4358 83.3391 17.1606C83.313 17.9683 83.3466 18.7794 83.4199 19.5782C83.5098 20.5598 83.7278 21.4996 83.9606 22.4543C83.9891 22.5716 84.0116 22.6996 84.0334 22.831C84.8536 21.8036 85.9016 21.0441 87.1306 20.5464C87.6952 20.3179 88.2792 20.151 88.8724 20.0192C89.1438 19.3143 89.2852 18.5761 89.1917 17.817Z" fill="#EAAC8E"/>
</g>
<g id="Group_69">
<g id="Group_70">
<path id="Vector_83" d="M84.506 21.6359C84.2426 22.4093 83.8431 23.1442 83.4952 23.8824C83.1562 24.6021 82.7964 25.312 82.4468 26.0265C81.7287 27.494 81.0251 28.9851 80.6098 30.5713C80.2209 32.0568 80.0881 33.6336 80.4473 35.1388C80.7429 36.3781 81.355 37.5311 82.1776 38.5004C83.0984 39.5857 84.3356 40.4839 85.7084 40.8914C86.0649 40.9972 86.1932 40.4728 85.8592 40.3446C83.57 39.4654 81.7496 37.6128 81.0924 35.2237C80.2691 32.2306 81.5719 29.1867 82.8558 26.5307C83.2361 25.7441 83.6209 24.9606 83.9692 24.1591C84.3157 23.3616 84.5461 22.5458 84.7904 21.7138C84.8438 21.5309 84.5667 21.4578 84.506 21.6359Z" fill="#49312C"/>
</g>
<g id="Group_71">
<path id="Vector_84" d="M94.5769 18.165C94.2676 17.4424 93.7058 16.8176 93.1897 16.2328C92.6586 15.6313 92.0803 15.0738 91.4682 14.5555C90.256 13.5289 88.9096 12.6667 87.4675 12.0007C87.1062 11.8338 86.7391 11.6782 86.3675 11.5353C85.992 11.3908 85.6036 11.2507 85.1965 11.2414C84.3459 11.222 83.886 11.8727 83.6233 12.5962C82.9913 14.3364 82.4535 16.1621 82.2687 18.0094C82.0829 19.868 82.3147 21.9382 83.36 23.5328C83.5633 23.8431 84.0464 23.5673 83.8606 23.2403C83.0735 21.855 82.7628 20.3333 82.8163 18.7464C82.8752 17 83.3564 15.2947 83.8772 13.6375C84.0603 13.0544 84.2241 11.9767 84.9441 11.8163C85.3315 11.73 85.7496 11.8957 86.1069 12.0295C86.4473 12.1568 86.7834 12.2958 87.1143 12.4464C88.454 13.0554 89.7183 13.8406 90.8621 14.7665C91.5066 15.2882 92.11 15.8576 92.6792 16.4601C93.2541 17.0688 93.7291 17.7751 94.328 18.3573C94.4661 18.4906 94.6442 18.3223 94.5769 18.165Z" fill="#49312C"/>
</g>
<g id="Group_72">
<path id="Vector_85" d="M88.583 20.1034C88.2529 19.5584 87.8309 19.0753 87.35 18.6581C87.1119 18.4515 86.8609 18.2582 86.6005 18.0806C86.3281 17.8948 86.0479 17.7121 85.7348 17.6042C85.4612 17.51 85.3375 17.8974 85.5489 18.0451C85.7956 18.2175 86.0678 18.3508 86.32 18.516C86.5667 18.6776 86.8033 18.8531 87.028 19.0439C87.4864 19.4333 87.9026 19.8703 88.2905 20.3292C88.4279 20.4925 88.6912 20.282 88.583 20.1034Z" fill="#49312C"/>
</g>
<g id="Group_73">
<path id="Vector_86" d="M87.3983 19.9514C87.0864 19.8953 86.7745 19.8392 86.4628 19.7826C86.3093 19.7548 86.1549 19.734 86.0005 19.7121C85.8337 19.6884 85.6251 19.6225 85.4618 19.6822C85.271 19.7522 85.2446 19.9809 85.4076 20.0974C85.5445 20.1955 85.7533 20.1878 85.9152 20.2089C86.0758 20.23 86.236 20.2521 86.3973 20.2669C86.7128 20.296 87.0284 20.3252 87.3439 20.3544C87.5721 20.3758 87.6261 19.9924 87.3983 19.9514Z" fill="#49312C"/>
</g>
<g id="Group_74">
<path id="Vector_87" d="M86.3539 20.4508C86.1444 20.4796 85.9348 20.5083 85.725 20.5371C85.6224 20.5513 85.5193 20.5637 85.4172 20.5805C85.311 20.5978 85.204 20.6098 85.1024 20.6455C84.988 20.6855 84.913 20.7865 84.9295 20.9102C84.9456 21.0305 85.0453 21.1152 85.1664 21.1192C85.2882 21.1236 85.409 21.0986 85.5296 21.0814C85.6361 21.0663 85.742 21.0473 85.848 21.0293C86.06 20.9936 86.2719 20.9576 86.4838 20.9219C86.6102 20.9006 86.6922 20.738 86.6546 20.6213C86.6095 20.4817 86.4903 20.4321 86.3539 20.4508Z" fill="#49312C"/>
</g>
<g id="Group_75">
<path id="Vector_88" d="M90.9973 52.2402C91.8098 52.4094 92.7491 52.3126 93.3039 51.6259C93.8546 50.9445 93.898 50.0239 93.6202 49.219C93.0649 47.6108 91.6714 46.2926 90.1325 45.6235C88.4576 44.8951 86.5216 44.8874 84.8397 45.6026C83.2755 46.2679 81.9562 47.5978 81.7524 49.3418C81.6419 50.2871 81.9111 51.2689 82.5661 51.9709C83.17 52.6183 84.0718 53.0045 84.96 52.8945C85.3331 52.8482 85.3384 52.256 84.96 52.3023C83.4882 52.4826 82.3393 51.2042 82.3259 49.7928C82.3115 48.2749 83.3451 47.0433 84.6309 46.3583C86.0293 45.6132 87.7251 45.4715 89.2356 45.9378C90.5863 46.355 91.7745 47.2754 92.5367 48.4641C92.9843 49.162 93.3651 50.0567 93.0419 50.8827C92.7021 51.7506 91.7765 51.7583 90.9977 51.935C90.8481 51.9688 90.8448 52.2083 90.9973 52.2402Z" fill="#49312C"/>
</g>
<g id="Group_76">
<path id="Vector_89" d="M84.2361 51.197C84.3078 51.6873 84.4754 52.1165 84.8496 52.4595C85.221 52.8 85.6818 53.0124 86.1848 53.0539C87.1678 53.1349 88.1985 52.4835 88.5299 51.5535C88.6488 51.2198 88.0993 50.9815 87.9516 51.3097C87.6382 52.0057 87.0043 52.5013 86.2122 52.4514C85.8568 52.4291 85.4963 52.2718 85.2217 52.0486C84.9319 51.8129 84.631 51.4811 84.52 51.1186C84.4632 50.9325 84.2093 51.0138 84.2361 51.197Z" fill="#49312C"/>
</g>
<g id="Group_77">
<path id="Vector_90" d="M88.142 51.6767C88.2177 51.781 88.2563 51.8949 88.3441 51.9942C88.4158 52.0754 88.5011 52.1478 88.5853 52.2157C88.7749 52.3684 88.9773 52.4785 89.2045 52.5655C89.6553 52.7381 90.1638 52.7645 90.6284 52.6321C91.0926 52.4998 91.4944 52.2195 91.7697 51.8225C92.0183 51.4633 92.2226 50.8568 92.054 50.4259C91.9339 50.1186 91.4781 50.1497 91.4633 50.5058C91.4563 50.6729 91.4889 50.8333 91.4517 51.0006C91.4127 51.1766 91.3479 51.3363 91.2499 51.4876C91.059 51.7817 90.7507 51.9764 90.416 52.0666C90.0746 52.1586 89.7152 52.1414 89.3803 52.032C89.2038 51.9745 89.0338 51.8903 88.872 51.8C88.7922 51.7554 88.7171 51.7045 88.6409 51.6542C88.5594 51.6002 88.4455 51.5612 88.3736 51.4981C88.2558 51.395 88.0377 51.5331 88.142 51.6767Z" fill="#49312C"/>
</g>
<g id="Group_78">
<path id="Vector_91" d="M88.0334 50.215C88.0535 50.4531 88.0895 50.6921 88.0972 50.9312C88.1012 51.0529 88.0969 51.175 88.0842 51.2963C88.0718 51.4155 88.0341 51.5361 88.0332 51.6569C88.0317 51.8338 88.3017 51.9254 88.3834 51.7518C88.446 51.6188 88.4594 51.4677 88.4719 51.3224C88.4829 51.1925 88.4844 51.0616 88.4762 50.9314C88.459 50.6538 88.4033 50.3936 88.2554 50.1553C88.1972 50.0613 88.0231 50.0913 88.0334 50.215Z" fill="#49312C"/>
</g>
<g id="Group_79">
<path id="Vector_92" d="M110.888 24.1382C110.947 24.9229 110.983 25.6992 111.13 26.4746C111.279 27.2595 111.466 28.0356 111.657 28.8112C112.031 30.3315 112.399 31.8626 112.497 33.4303C112.589 34.9057 112.457 36.4361 111.833 37.794C111.329 38.8916 110.553 39.8542 109.6 40.5956C108.507 41.4464 107.233 41.9346 105.872 42.1472C105.558 42.1962 105.629 42.7289 105.947 42.7042C108.463 42.5098 110.819 40.8423 112.056 38.6778C113.633 35.9197 113.178 32.6259 112.476 29.6786C112.261 28.7776 112.026 27.8815 111.806 26.9819C111.692 26.5182 111.592 26.0514 111.482 25.5868C111.369 25.1073 111.24 24.6287 111.183 24.1382C111.161 23.9543 110.874 23.9461 110.888 24.1382Z" fill="#49312C"/>
</g>
<g id="Group_80">
<path id="Vector_93" d="M103.695 19.1439C103.273 18.937 102.866 18.7505 102.417 18.6009C101.992 18.4589 101.561 18.3386 101.125 18.2353C100.22 18.0209 99.2967 17.8775 98.3694 17.8037C96.5297 17.6572 94.6338 17.7792 92.8402 18.2266C92.5654 18.2952 92.6819 18.7097 92.9567 18.6496C94.7261 18.2619 96.5156 18.1036 98.3247 18.2439C100.127 18.3837 101.871 18.8507 103.585 19.4048C103.737 19.4534 103.841 19.2156 103.695 19.1439Z" fill="#49312C"/>
</g>
<g id="Group_81">
<path id="Vector_94" d="M102.262 18.8649C102.898 18.4662 103.448 17.9383 104.061 17.5036C104.678 17.0658 105.321 16.6606 105.987 16.3008C107.312 15.5851 108.726 15.0387 110.189 14.6839C110.888 14.5144 111.665 14.306 112.39 14.3437C112.737 14.3619 113.04 14.5005 113.202 14.8198C113.364 15.1363 113.387 15.5132 113.422 15.8603C113.597 17.6328 113.756 19.443 113.513 21.2169C113.278 22.9295 112.642 24.5279 111.485 25.8242C111.239 26.1009 111.628 26.4984 111.895 26.2342C113.05 25.0947 113.707 23.4778 114.003 21.9057C114.357 20.0201 114.224 18.0992 114.024 16.2049C113.947 15.4772 113.935 14.5693 113.294 14.0833C112.671 13.611 111.8 13.803 111.093 13.9284C109.484 14.2142 107.912 14.728 106.444 15.4465C105.628 15.8457 104.837 16.3039 104.096 16.8299C103.365 17.3492 102.568 17.91 102.045 18.6484C101.952 18.7796 102.133 18.9457 102.262 18.8649Z" fill="#49312C"/>
</g>
<g id="Group_82">
<path id="Vector_95" d="M107.75 22.0622C108.224 21.6963 108.72 21.3578 109.248 21.0742C109.505 20.9361 109.77 20.8116 110.042 20.7064C110.327 20.5961 110.625 20.522 110.906 20.4036C111.018 20.3564 111.096 20.2684 111.079 20.1389C111.064 20.032 110.961 19.9152 110.842 19.9298C110.217 20.0061 109.588 20.3127 109.041 20.6134C108.481 20.9207 107.963 21.3051 107.524 21.7695C107.386 21.9157 107.576 22.1967 107.75 22.0622Z" fill="#49312C"/>
</g>
<g id="Group_83">
<path id="Vector_96" d="M108.72 22.2857C109.038 22.3236 109.355 22.3614 109.673 22.3998C109.828 22.4185 109.984 22.4303 110.14 22.443C110.321 22.4578 110.496 22.4909 110.668 22.4166C110.834 22.3449 110.797 22.1061 110.668 22.0244C110.524 21.9333 110.323 21.9479 110.158 21.9361C109.997 21.9246 109.835 21.9119 109.673 21.9066C109.355 21.8963 109.038 21.8858 108.72 21.8752C108.61 21.8714 108.515 21.9723 108.515 22.0805C108.515 22.2023 108.61 22.2725 108.72 22.2857Z" fill="#49312C"/>
</g>
<g id="Group_84">
<path id="Vector_97" d="M109.447 23.0357C109.643 23.1138 109.84 23.1922 110.036 23.2704C110.131 23.308 110.225 23.3471 110.32 23.3824C110.423 23.4202 110.524 23.4636 110.632 23.4828C110.751 23.5044 110.867 23.4603 110.916 23.343C110.963 23.232 110.921 23.1052 110.818 23.0417C110.712 22.9772 110.594 22.9381 110.479 22.893C110.381 22.8544 110.281 22.8197 110.182 22.7837C109.98 22.7106 109.778 22.6374 109.577 22.5641C109.456 22.5204 109.304 22.613 109.276 22.7348C109.244 22.876 109.319 22.9848 109.447 23.0357Z" fill="#49312C"/>
</g>
<g id="Group_85">
<path id="Vector_98" d="M103.164 51.5981C102.478 51.4425 101.638 51.4465 101.232 50.77C100.836 50.1109 101.006 49.2873 101.332 48.6378C101.969 47.3688 103.099 46.3297 104.409 45.786C105.866 45.1813 107.546 45.1861 109.007 45.7757C110.346 46.3161 111.537 47.4084 111.792 48.8805C111.931 49.6841 111.757 50.5714 111.199 51.1862C110.687 51.7489 109.961 52.0584 109.201 51.9654C108.823 51.9191 108.827 52.5113 109.201 52.5576C109.985 52.6547 110.762 52.3658 111.357 51.8611C111.997 51.3178 112.351 50.5297 112.421 49.7011C112.572 47.9239 111.393 46.3702 109.899 45.545C108.308 44.6663 106.335 44.4863 104.61 45.0605C103.026 45.5882 101.631 46.7184 100.842 48.1974C100.378 49.0665 100.156 50.1145 100.667 51.0147C101.176 51.9102 102.224 52.0987 103.163 51.903C103.316 51.8716 103.313 51.6319 103.164 51.5981Z" fill="#49312C"/>
</g>
<g id="Group_86">
<path id="Vector_99" d="M109.641 50.782C109.532 51.1368 109.241 51.4602 108.96 51.6945C108.681 51.9273 108.314 52.092 107.948 52.1148C107.157 52.1646 106.523 51.6691 106.209 50.9731C106.063 50.6484 105.511 50.8793 105.631 51.2169C105.961 52.1447 106.993 52.8012 107.976 52.7173C108.48 52.6741 108.938 52.4636 109.311 52.1227C109.686 51.7801 109.853 51.3502 109.924 50.8601C109.952 50.6774 109.698 50.5957 109.641 50.782Z" fill="#49312C"/>
</g>
<g id="Group_87">
<path id="Vector_100" d="M105.788 51.1616C105.72 51.2208 105.618 51.2527 105.543 51.3023C105.467 51.3524 105.393 51.4047 105.313 51.45C105.153 51.5418 104.982 51.6274 104.807 51.6866C104.463 51.8029 104.097 51.824 103.745 51.7298C103.421 51.643 103.116 51.455 102.926 51.1731C102.825 51.0239 102.757 50.8645 102.715 50.6895C102.674 50.5123 102.705 50.3462 102.698 50.1687C102.683 49.8151 102.228 49.7789 102.107 50.0889C101.941 50.5123 102.138 51.1066 102.376 51.4634C102.649 51.8712 103.06 52.162 103.532 52.2953C103.989 52.4241 104.486 52.4028 104.931 52.2385C105.167 52.1513 105.38 52.0374 105.576 51.8789C105.66 51.8106 105.745 51.7386 105.817 51.6574C105.904 51.5588 105.943 51.4437 106.019 51.3399C106.122 51.1978 105.906 51.0575 105.788 51.1616Z" fill="#49312C"/>
</g>
<g id="Group_88">
<path id="Vector_101" d="M105.906 49.8182C105.758 50.0562 105.702 50.3168 105.685 50.5942C105.677 50.7244 105.678 50.8553 105.689 50.9853C105.702 51.1306 105.715 51.2816 105.778 51.4147C105.859 51.5883 106.13 51.4969 106.128 51.3197C106.127 51.1989 106.089 51.0783 106.077 50.9591C106.064 50.8381 106.06 50.7158 106.064 50.594C106.072 50.355 106.107 50.1159 106.127 49.8779C106.138 49.7546 105.964 49.7244 105.906 49.8182Z" fill="#49312C"/>
</g>
<g id="Group_89">
<path id="Vector_102" d="M109.451 41.5575C109.45 41.7608 109.403 41.9603 109.407 42.1665C109.411 42.3693 109.418 42.5712 109.439 42.7731C109.479 43.1445 109.527 43.517 109.603 43.8829C109.68 44.2548 109.773 44.6233 109.881 44.9874C109.984 45.3387 110.077 45.7913 110.312 46.0776C110.435 46.2279 110.698 46.1032 110.691 45.9203C110.678 45.5674 110.478 45.1891 110.377 44.8508C110.271 44.5003 110.179 44.1454 110.102 43.7875C110.024 43.4302 109.948 43.073 109.89 42.7122C109.86 42.5261 109.826 42.3408 109.795 42.1548C109.763 41.9567 109.69 41.7548 109.67 41.5578C109.657 41.4199 109.452 41.4134 109.451 41.5575Z" fill="#49312C"/>
</g>
<g id="Group_90">
<path id="Vector_103" d="M112.979 31.6217C115.315 27.7338 115.925 22.8947 115.062 18.4777C114.629 16.2609 113.807 14.1156 112.619 12.1935C111.992 11.1806 111.223 10.1345 111.283 8.88373C111.336 7.78829 112.152 7.07503 113.219 7.01653C115.457 6.89401 117.192 8.89643 118.022 10.7631C118.995 12.9533 119.284 15.4544 119.448 17.8236C119.76 22.314 119.092 26.9184 117.649 31.175C116.207 35.4292 113.958 39.4446 110.994 42.8268C110.629 43.2439 110.252 43.6511 109.867 44.0495C109.662 44.2612 109.986 44.5861 110.19 44.3729C113.396 41.0205 115.895 37.0334 117.565 32.7085C119.228 28.4023 120.081 23.7861 119.994 19.1679C119.972 18.0068 119.905 16.8488 119.766 15.6954C119.615 14.4477 119.429 13.1897 119.092 11.9775C118.469 9.74204 117.073 7.50562 114.806 6.66553C113.886 6.3246 112.748 6.29007 111.883 6.80363C110.898 7.3879 110.605 8.54879 110.795 9.62073C111.014 10.8607 111.846 11.8809 112.459 12.9447C113.046 13.9624 113.53 15.0372 113.906 16.1499C115.404 20.5758 115.255 25.5794 113.427 29.8868C113.201 30.4193 112.973 30.9496 112.711 31.4656C112.621 31.6423 112.876 31.7941 112.979 31.6217Z" fill="#49312C"/>
</g>
<path id="Vector_104" d="M98.5243 33.5603C98.1733 33.9816 97.8184 34.4066 97.3593 34.7054C96.9021 35.0022 96.3185 35.1566 95.7992 34.982C95.4983 34.8797 95.2418 34.6752 94.997 34.4687C94.5858 34.1199 94.1809 33.7449 93.9143 33.2736C93.6477 32.8025 93.5352 32.2186 93.7318 31.7154L94.143 31.3383C95.4283 31.0676 96.786 31.1517 98.0272 31.5831C98.4504 31.7296 98.9117 31.9741 99.0038 32.4112C99.0917 32.8324 98.799 33.2295 98.5243 33.5603Z" fill="#EAAC8E"/>
<g id="Group_91">
<path id="Vector_105" d="M91.4043 32.7468C91.2278 32.7833 91.0633 32.7646 90.8866 32.8295C90.7095 32.8948 90.5435 32.9871 90.4095 33.122C90.1487 33.3851 90.0544 33.7545 90.047 34.1156C90.0329 34.8113 90.2614 35.5985 90.5711 36.217C90.8953 36.8639 91.4314 37.416 92.1345 37.6308C92.8965 37.8636 93.7416 37.6956 94.435 37.334C95.2537 36.9068 95.984 36.201 96.5414 35.4726C96.7198 35.2395 96.3489 34.9885 96.1502 35.1707C95.5 35.767 94.9658 36.4604 94.166 36.8742C93.4218 37.2592 92.4733 37.3678 91.7586 36.86C91.1465 36.4249 90.849 35.6416 90.6872 34.9363C90.6061 34.5829 90.5287 34.1767 90.614 33.8183C90.6622 33.6157 90.7708 33.4517 90.9394 33.3299C91.0187 33.2726 91.1074 33.2278 91.194 33.1825C91.2844 33.1352 91.3848 33.0535 91.4788 33.0194C91.6491 32.9569 91.5836 32.7097 91.4043 32.7468Z" fill="#49312C"/>
</g>
<g id="Group_92">
<path id="Vector_106" d="M101.563 33.9513C101.719 34.0493 101.897 34.2265 102.023 34.3639C102.178 34.5322 102.25 34.7307 102.247 34.9587C102.241 35.3589 102.055 35.7739 101.878 36.1254C101.551 36.7725 101.084 37.4452 100.372 37.6967C99.5979 37.9703 98.7511 37.6655 98.1392 37.1659C97.4411 36.5958 97.0664 35.8063 96.5562 35.0868C96.3703 34.8247 95.9882 35.0467 96.126 35.3383C96.7739 36.7084 97.9503 38.1829 99.5663 38.3251C101.141 38.4637 102.176 37.0079 102.641 35.6861C102.779 35.2927 102.849 34.8264 102.674 34.4334C102.589 34.2416 102.455 34.0867 102.287 33.9626C102.207 33.9031 102.125 33.8537 102.034 33.812C101.928 33.7631 101.811 33.7542 101.706 33.7079C101.543 33.6358 101.406 33.8523 101.563 33.9513Z" fill="#49312C"/>
</g>
<g id="Group_93">
<path id="Vector_107" d="M94.7907 38.0681C94.805 38.1313 94.8141 38.2157 94.8439 38.2941C94.8762 38.3795 94.9172 38.4586 94.965 38.5365C95.0563 38.6857 95.163 38.8266 95.2848 38.952C95.4059 39.0767 95.5413 39.1877 95.6835 39.2874C95.8312 39.391 95.9909 39.4658 96.1584 39.5317C96.2922 39.5845 96.4651 39.4742 96.4958 39.3402C96.532 39.1812 96.4469 39.0609 96.3042 39.0028C96.2409 38.9772 96.3589 39.028 96.2968 38.9997C96.2788 38.9916 96.2608 38.9834 96.2428 38.975C96.2102 38.9597 96.1779 38.9434 96.1457 38.9264C96.0817 38.8923 96.0175 38.859 95.9551 38.8218C95.8904 38.783 95.8273 38.7413 95.7665 38.6967C95.7605 38.6924 95.7159 38.6583 95.7456 38.6813C95.7753 38.7044 95.731 38.6694 95.7252 38.6648C95.6945 38.6399 95.6643 38.6142 95.6348 38.5876C95.5274 38.4915 95.4248 38.3881 95.3332 38.2769C95.3207 38.2618 95.3085 38.2464 95.2965 38.2311C95.3255 38.268 95.286 38.2162 95.2836 38.2131C95.2572 38.1771 95.2304 38.1419 95.2021 38.1076C95.1898 38.0927 95.1776 38.0781 95.1659 38.063C95.1939 38.0987 95.1074 37.9918 95.1311 38.0175C95.1088 37.9932 95.0817 37.9748 95.0656 37.9522C94.9681 37.817 94.7511 37.8945 94.7907 38.0681Z" fill="#49312C"/>
</g>
<path id="Vector_108" d="M92.6143 28.479C92.6075 30.8288 89.4994 30.7832 89.5617 28.4341C89.5687 26.0845 92.6768 26.1301 92.6143 28.479Z" fill="#49312C"/>
<path id="Vector_109" d="M103.952 29.8793C103.945 32.2289 100.837 32.1835 100.9 29.8344C100.907 27.4846 104.014 27.5302 103.952 29.8793Z" fill="#49312C"/>
<g id="Group_94">
<path id="Vector_110" d="M89.09 25.5055C89.3142 25.4938 89.5074 25.3363 89.6932 25.2231C89.8848 25.1063 90.0749 24.9934 90.2794 24.8999C90.442 24.8256 90.6489 24.7508 90.8445 24.6923C90.9483 24.6611 91.0533 24.634 91.1593 24.6108C91.2694 24.5865 91.3914 24.5813 91.4964 24.5422C91.6554 24.4832 91.7676 24.3444 91.7409 24.1675C91.715 23.9956 91.5794 23.8798 91.4055 23.8714C91.278 23.8651 91.137 23.9061 91.0126 23.9354C90.9009 23.9617 90.7901 23.9924 90.6808 24.0277C90.4408 24.1046 90.2073 24.2032 89.9836 24.319C89.7798 24.4245 89.5827 24.5451 89.3983 24.6817C89.2123 24.8196 88.9449 25.0229 88.9068 25.2658C88.8893 25.3792 88.9552 25.5127 89.09 25.5055Z" fill="#49312C"/>
</g>
<g id="Group_95">
<path id="Vector_111" d="M104.106 26.8589C104.17 26.6113 103.918 26.4389 103.743 26.3192C103.575 26.2046 103.404 26.1056 103.218 26.0239C102.825 25.8512 102.4 25.6911 101.969 25.6546C101.794 25.6398 101.643 25.8009 101.621 25.9618C101.598 26.1334 101.703 26.3037 101.875 26.3502C102.063 26.4015 102.256 26.4334 102.445 26.4863C102.633 26.5393 102.818 26.6031 102.998 26.6779C102.964 26.6638 102.994 26.6762 103.011 26.6837C103.032 26.693 103.053 26.7026 103.074 26.712C103.132 26.7376 103.191 26.7618 103.251 26.7853C103.261 26.7896 103.272 26.7939 103.283 26.7983C103.261 26.7892 103.262 26.7894 103.283 26.7985C103.304 26.8076 103.325 26.817 103.346 26.8266C103.389 26.8455 103.43 26.8649 103.472 26.8851C103.581 26.9378 103.698 26.9975 103.82 27.0097C103.928 27.0205 104.075 26.9812 104.106 26.8589Z" fill="#49312C"/>
</g>
<g id="Group_96">
<path id="Vector_112" d="M85.7719 40.8344C85.278 41.1655 84.9317 41.6339 84.6496 42.1528C84.5115 42.4067 84.3983 42.6757 84.3043 42.9488C84.2103 43.2218 84.0917 43.5479 84.1053 43.8402C84.119 44.1267 84.4825 44.1535 84.5824 43.9047C84.6803 43.6608 84.7081 43.3829 84.7898 43.1314C84.873 42.8754 84.978 42.6284 85.0981 42.388C85.3381 41.9075 85.6649 41.4721 85.9668 41.0298C86.0466 40.9128 85.8884 40.7562 85.7719 40.8344Z" fill="#49312C"/>
</g>
<g id="Group_97">
<path id="Vector_113" d="M85.4451 42.8792C85.3074 43.0413 85.1655 43.193 85.0583 43.3784C84.9476 43.5699 84.8675 43.7836 84.8078 43.996C84.6879 44.4227 84.6671 44.8881 84.7632 45.3218C84.7944 45.463 84.9584 45.546 85.0929 45.5088C85.2473 45.4664 85.3002 45.3233 85.2801 45.1794C85.2302 44.825 85.2302 44.4642 85.2986 44.112C85.3338 43.9308 85.3894 43.7567 85.4506 43.5829C85.5131 43.4045 85.5788 43.2206 85.6815 43.0614C85.7723 42.9202 85.5565 42.7478 85.4451 42.8792Z" fill="#49312C"/>
</g>
</g>
</g>
</g>
</svg>
