<svg width="80" height="85" viewBox="0 0 80 85" fill="none" xmlns="http://www.w3.org/2000/svg">
<g id="Asset 1 1" clip-path="url(#clip0_702_3319)">
<g id="POST 2">
<g id="Group">
<path id="Vector" d="M63.6341 72.4677C67.5936 65.977 76.5032 62.5354 75.4558 51.2264C74.3543 39.3044 62.2673 39.8045 58.4864 27.9874C55.7393 19.4022 60.1427 10.2899 65.515 11.6639C69.4746 12.6776 70.2676 19.7571 74.2271 20.9375C78.1866 22.1178 82.5413 17.071 78.1866 12.2205C73.832 7.36724 63.2903 3.19696 55.7421 11.5268C48.1938 19.8566 53.2413 31.308 58.6867 37.5809C64.132 43.8538 67.8913 44.1092 70.1701 50.5004C72.4463 56.8916 66.9035 63.9147 61.0629 68.0447L63.6368 72.4704L63.6341 72.4677Z" fill="#B48456"/>
<g id="Group_2">
<path id="Vector_2" d="M19.7354 52.0304C19.7354 52.0304 14.7988 52.8988 12.3522 53.0279C9.90555 53.157 9.03137 51.7696 8.72554 51.3797C8.41971 50.9898 8.81215 50.5973 9.3372 50.8581C9.3372 50.8581 7.41562 42.7434 7.67814 37.667C7.67814 37.667 5.88647 38.6215 3.87828 38.3607C1.87009 38.0999 -0.314007 36.5807 0.0351238 34.8465C0.384256 33.1122 3.35594 30.4234 5.75656 29.8561C7.18015 29.52 12.0464 30.9854 12.8339 34.1097C13.9896 38.7075 14.8881 43.2005 14.8881 43.2005C14.8881 43.2005 18.6041 41.7673 21.4432 39.1082C21.4432 39.1082 22.7071 46.5614 19.7381 52.0304H19.7354Z" fill="#B48456"/>
<g id="Group_3">
<path id="Vector_3" d="M10.52 35.6262C10.52 35.6262 9.12079 37.14 7.68095 37.667" stroke="#F0CAA5" stroke-width="1.05" stroke-linecap="round" stroke-linejoin="round"/>
<path id="Vector_4" d="M5.53735 34.0183C5.53735 34.0183 3.52916 34.755 3.09072 35.9273C2.65498 37.0996 3.25582 38.2397 3.25582 38.2397" stroke="#F0CAA5" stroke-width="1.05" stroke-linecap="round" stroke-linejoin="round"/>
<path id="Vector_5" d="M3.15308 32.5825C3.15308 32.5825 1.94871 33.088 1.30457 34.1071C0.343783 35.6262 0.979796 37.0728 0.979796 37.0728" stroke="#F0CAA5" stroke-width="1.05" stroke-linecap="round" stroke-linejoin="round"/>
</g>
</g>
<g id="Group_4">
<path id="Vector_6" d="M30.4529 79.7703C31.2432 79.367 32.1877 79.2353 33.1242 79.2487C33.1242 79.2487 30.0821 74.9763 30.3041 69.8138C30.526 64.6514 37.0594 60.5215 41.7361 61.1103L49.9773 67.2326C53.4659 79.8456 42.7023 84.8602 42.7023 84.8602H27.8466C27.8466 84.8602 27.8547 81.0986 30.4529 79.7703Z" fill="#B48456"/>
<g id="Group_5">
<path id="Vector_7" d="M33.8306 79.3643C33.8306 79.3643 30.2662 78.9583 29.6735 84.8602" stroke="#F0CAA5" stroke-width="1.05" stroke-linecap="round" stroke-linejoin="round"/>
<path id="Vector_8" d="M36.0146 79.5848C36.0146 79.5848 32.8643 80.4318 33.4219 84.8575" stroke="#F0CAA5" stroke-width="1.05" stroke-linecap="round" stroke-linejoin="round"/>
</g>
</g>
<path id="Vector_9" d="M16.466 45.5477C17.2075 40.1648 19.8057 34.1904 19.8057 34.1904H39.7766C39.7766 34.1904 40.667 42.5981 46.7566 48.5C52.8461 54.4018 60.4918 54.6223 63.9804 67.2326C67.469 79.8456 56.7055 84.8602 56.7055 84.8602H41.8498C41.8498 84.8602 41.8579 81.0986 44.4561 79.7703C40.7618 72.8199 30.7777 69.4455 26.1767 66.2001C21.2645 62.7343 19.9546 57.7924 19.9546 57.7924C19.6569 58.6044 17.9491 58.677 17.7272 56.5394C17.5052 54.4018 18.2414 51.3017 18.2414 51.3017C16.7501 52.923 15.7217 50.9333 16.466 45.5477Z" fill="#F0CAA5"/>
<path id="Vector_10" d="M55.7393 61.1103C51.0625 60.5215 44.5291 64.6514 44.3072 69.8138C44.0853 74.9763 47.1273 79.2487 47.1273 79.2487C46.1909 79.2353 45.2436 79.367 44.4561 79.7703" stroke="#B48456" stroke-width="1.05" stroke-linecap="round" stroke-linejoin="round"/>
<g id="Group_6">
<path id="Vector_11" d="M47.8337 79.3644C47.8337 79.3644 44.2693 78.9584 43.6766 84.8602" stroke="#B48456" stroke-width="1.05" stroke-linecap="round" stroke-linejoin="round"/>
<path id="Vector_12" d="M50.0178 79.5849C50.0178 79.5849 46.8675 80.4319 47.425 84.8576" stroke="#B48456" stroke-width="1.05" stroke-linecap="round" stroke-linejoin="round"/>
</g>
<path id="Vector_13" d="M35.2487 49.9734C35.2487 49.9734 32.7236 57.424 35.7683 65.0198C35.7683 65.0198 31.4434 72.4703 28.5583 84.8602H19.2129C19.2129 84.8602 18.5445 79.9935 22.9993 79.5875C22.9993 79.5875 24.929 72.4703 23.592 60.0052C22.255 47.5401 34.5044 43.2623 35.2487 49.9734Z" fill="#F0CAA5"/>
<g id="Group_7">
<path id="Vector_14" d="M24.0032 79.7704C24.0032 79.7704 21.3671 80.6926 21.3292 84.8602" stroke="#B48456" stroke-width="1.05" stroke-linecap="round" stroke-linejoin="round"/>
<path id="Vector_15" d="M26.6746 80.4695C26.6746 80.4695 24.4093 81.1336 24.8179 84.8576" stroke="#B48456" stroke-width="1.05" stroke-linecap="round" stroke-linejoin="round"/>
</g>
<g id="Group_8">
<path id="Vector_16" d="M30.0984 39.3502V35.1288" stroke="#FE531D" stroke-width="1.05" stroke-linecap="round" stroke-linejoin="round"/>
<g id="Group_9">
<path id="Vector_17" d="M27.0022 39.9928C27.0022 39.9928 28.6829 38.2935 30.6857 38.5624C32.6885 38.8312 33.606 40.6193 33.606 40.6193C33.606 40.6193 32.6885 42.4073 30.6857 42.6762C28.6829 42.945 27.0022 41.2457 27.0022 41.2457C27.0022 41.2457 26.5232 42.2003 25.2917 42.3186V38.92C26.5232 39.0383 27.0022 39.9928 27.0022 39.9928Z" fill="#FFA519"/>
<g id="Clip path group">
<mask id="mask0_702_3319" style="mask-type:luminance" maskUnits="userSpaceOnUse" x="25" y="38" width="9" height="5">
<g id="clippath">
<path id="Vector_18" d="M27.0022 39.9928C27.0022 39.9928 28.6829 38.2935 30.6857 38.5624C32.6885 38.8312 33.606 40.6193 33.606 40.6193C33.606 40.6193 32.6885 42.4073 30.6857 42.6762C28.6829 42.945 27.0022 41.2457 27.0022 41.2457C27.0022 41.2457 26.5232 42.2003 25.2917 42.3186V38.92C26.5232 39.0383 27.0022 39.9928 27.0022 39.9928Z" fill="white"/>
</g>
</mask>
<g mask="url(#mask0_702_3319)">
<g id="Group_10">
<g id="Group_11">
<path id="Vector_19" d="M33.0295 42.7058L29.2162 36.6238" stroke="white" stroke-width="2.1" stroke-miterlimit="10"/>
<path id="Vector_20" d="M32.0039 43.6603L28.1932 37.5783" stroke="white" stroke-width="4.21" stroke-miterlimit="10"/>
</g>
</g>
</g>
</g>
</g>
</g>
<path id="Vector_21" d="M18.4471 31.8243L29.4488 32.8837L40.4505 31.8243C40.4505 31.8243 40.6779 34.2119 40.1528 35.0481C39.6278 35.8843 35.7982 37.6051 29.4488 37.6051C23.0995 37.6051 19.2672 35.8843 18.7448 35.0481C18.2198 34.2119 18.4471 31.8243 18.4471 31.8243Z" fill="#FFA519"/>
<g id="Group_12">
<g id="Group_13">
<path id="Vector_22" d="M34.4826 9.08804C34.4826 9.08804 35.0591 8.00716 38.0876 4.81021C41.1161 1.61327 44.5804 -0.303822 45.4221 0.04034C46.2638 0.384502 47.4005 6.08738 46.9079 10.5615C46.4153 15.0356 44.6805 17.84 44.6805 17.84L34.4853 9.08804H34.4826Z" fill="#B48456"/>
<path id="Vector_23" d="M46.9675 10.5615C46.4722 15.0356 44.7401 17.84 44.7401 17.84L37.7899 11.8736C38.9023 8.99394 42.1662 1.23685 45.4816 0.0403442C46.3234 0.384506 47.4601 6.08738 46.9675 10.5615Z" fill="#FF8DB4"/>
<path id="Vector_24" d="M39.7007 10.3276C39.7007 10.3276 40.9673 8.00447 43.6386 6.92358C43.6386 6.92358 44.3558 8.42929 43.6386 10.6126C43.6386 10.6126 46.3613 10.7605 48.0447 12.8254C48.0447 12.8254 47.203 13.6132 45.322 13.8579C45.322 13.8579 46.3125 14.1026 47.6983 14.1537C47.6983 14.1537 47.1597 15.9552 45.3788 16.4069L39.7034 10.3303L39.7007 10.3276Z" fill="#F0CAA5"/>
</g>
<g id="Group_14">
<path id="Vector_25" d="M24.4148 9.08804C24.4148 9.08804 23.8383 8.00716 20.8098 4.81021C17.784 1.61327 14.3197 -0.303822 13.478 0.04034C12.6363 0.384502 11.4996 6.08738 11.9922 10.5615C12.4848 15.0356 14.2196 17.84 14.2196 17.84L24.4148 9.08804Z" fill="#B48456"/>
<path id="Vector_26" d="M11.9298 10.5615C12.4251 15.0356 14.1573 17.84 14.1573 17.84L21.1074 11.8736C19.9951 8.99394 16.7311 1.23685 13.4157 0.0403442C12.574 0.384506 11.4373 6.08738 11.9298 10.5615Z" fill="#FF8DB4"/>
<path id="Vector_27" d="M19.1995 10.3276C19.1995 10.3276 17.9328 8.00447 15.2616 6.92358C15.2616 6.92358 14.5444 8.42929 15.2616 10.6126C15.2616 10.6126 12.5389 10.7605 10.8555 12.8254C10.8555 12.8254 11.6972 13.6132 13.5782 13.8579C13.5782 13.8579 12.5876 14.1026 11.2019 14.1537C11.2019 14.1537 11.7405 15.9552 13.5213 16.4069L19.1968 10.3303L19.1995 10.3276Z" fill="#F0CAA5"/>
</g>
<path id="Vector_28" d="M10.6497 24.2312C11.053 21.9699 13.2127 15.974 15.4564 13.3659C18.3766 9.97264 22.3714 8.30023 29.4487 8.30023C36.5261 8.30023 40.5208 9.97264 43.4411 13.3659C45.6874 15.974 47.8472 21.9699 48.2478 24.2312C48.8188 27.4362 47.5468 28.6569 46.5075 27.9202C46.5075 27.9202 46.9026 29.641 45.3194 29.1973C45.3194 29.1973 39.5086 33.8677 29.446 33.8677C19.3834 33.8677 13.5727 29.1973 13.5727 29.1973C11.9894 29.641 12.3846 27.9202 12.3846 27.9202C11.3453 28.6569 10.076 27.4362 10.6443 24.2312H10.6497Z" fill="#F0CAA5"/>
<path id="Vector_29" d="M29.4488 21.7225C30.9671 21.7225 32.3041 22.1958 32.2067 22.747C32.1065 23.2982 29.4488 25.2152 29.4488 25.2152C29.4488 25.2152 26.791 23.2982 26.6909 22.747C26.5908 22.1958 27.9278 21.7225 29.4488 21.7225Z" fill="#1A1D33"/>
<path id="Vector_30" d="M24.615 26.3096C24.615 26.3096 25.159 28.3665 27.4865 27.9282C29.4352 27.5626 29.4514 25.2153 29.4514 25.2153C29.4514 25.2153 29.4677 27.5599 31.4163 27.9282C33.7438 28.3665 34.2878 26.3096 34.2878 26.3096" stroke="#1A1D33" stroke-width="1.58" stroke-linecap="round" stroke-linejoin="round"/>
<path id="Vector_31" d="M29.4486 8.30023C36.2202 8.30023 40.1689 9.83283 43.054 12.9357C40.7345 12.1505 36.1958 11.0051 29.4486 11.0051C22.7014 11.0051 18.1627 12.1505 15.8433 12.9357C18.7284 9.83283 22.6771 8.30023 29.4486 8.30023Z" fill="#C9DDFD"/>
<path id="Vector_32" d="M29.4489 15.283C26.141 15.283 23.4595 12.619 23.4595 9.33275C23.4595 6.04652 26.141 3.38251 29.4489 3.38251C32.7567 3.38251 35.4382 6.04652 35.4382 9.33275C35.4382 12.619 32.7567 15.283 29.4489 15.283Z" fill="#92BBF4"/>
<path id="Vector_33" d="M29.4487 14.4172C26.6222 14.4172 24.3308 12.1408 24.3308 9.33275C24.3308 6.52468 26.6222 4.24829 29.4487 4.24829C32.2753 4.24829 34.5667 6.52468 34.5667 9.33275C34.5667 12.1408 32.2753 14.4172 29.4487 14.4172Z" fill="#C9DDFD"/>
<path id="Vector_34" d="M13.7999 15.8772C12.5171 18.6332 10.8553 25.2153 12.4602 26.0515C13.7187 26.7076 14.4901 25.5594 14.4901 25.5594C14.4901 25.5594 13.9461 27.4281 14.4901 27.9874C15.0341 28.5467 16.0977 27.9874 16.0977 27.9874C27.4567 34.989 41.8523 31.222 41.8523 31.222C39.1458 32.483 34.9319 33.8677 29.4513 33.8677C19.3887 33.8677 13.578 29.1973 13.578 29.1973C11.9947 29.641 12.3899 27.9202 12.3899 27.9202C11.3506 28.6569 10.0813 27.4362 10.6496 24.2312C10.95 22.54 12.2329 18.7649 13.7999 15.8772Z" fill="#B48456"/>
<g id="Group_15">
<path id="Vector_35" d="M21.6865 23.2446C19.7852 23.2446 18.2439 21.7133 18.2439 19.8245C18.2439 17.9356 19.7852 16.4044 21.6865 16.4044C23.5878 16.4044 25.1292 17.9356 25.1292 19.8245C25.1292 21.7133 23.5878 23.2446 21.6865 23.2446Z" fill="#FFA519"/>
<path id="Vector_36" d="M23.5647 20.1738C23.2399 21.8865 21.5809 23.0131 19.8596 22.6932C19.8352 22.6878 19.8136 22.6824 19.7892 22.677C18.6688 21.9403 18.0409 20.5852 18.3034 19.1924C18.5659 17.7996 19.6458 16.7618 20.9584 16.4794C20.9828 16.4821 21.0044 16.4875 21.0288 16.4902C22.7528 16.8128 23.8868 18.4611 23.5647 20.1711V20.1738Z" fill="#1A1D33"/>
<path id="Vector_37" opacity="0.2" d="M22.3198 16.4633C23.7055 16.7214 24.7421 17.7727 25.0398 19.058L18.4306 20.9374C18.2412 20.3943 18.1871 19.7974 18.3007 19.1924C18.6526 17.3372 20.4497 16.1138 22.3171 16.4633H22.3198Z" fill="#FE531D"/>
<path id="Vector_38" d="M23.4222 20.4652C22.7772 20.3449 22.3085 19.9611 22.3752 19.6079C22.442 19.2547 23.0189 19.0659 23.6638 19.1861C24.3087 19.3064 24.7775 19.6902 24.7107 20.0434C24.644 20.3966 24.0671 20.5854 23.4222 20.4652Z" fill="white"/>
</g>
<g id="Group_16">
<path id="Vector_39" d="M36.7996 23.2446C34.8983 23.2446 33.357 21.7133 33.357 19.8245C33.357 17.9356 34.8983 16.4044 36.7996 16.4044C38.7009 16.4044 40.2422 17.9356 40.2422 19.8245C40.2422 21.7133 38.7009 23.2446 36.7996 23.2446Z" fill="#FFA519"/>
<path id="Vector_40" d="M38.6778 20.1738C38.353 21.8865 36.6939 23.0131 34.9726 22.6932C34.9483 22.6878 34.9266 22.6824 34.9023 22.677C33.7818 21.9403 33.1539 20.5852 33.4164 19.1924C33.6789 17.7996 34.7588 16.7618 36.0714 16.4794C36.0958 16.4821 36.1175 16.4875 36.1418 16.4902C37.8658 16.8128 38.9998 18.4611 38.6778 20.1711V20.1738Z" fill="#1A1D33"/>
<path id="Vector_41" opacity="0.2" d="M36.1203 16.4633C34.7346 16.7214 33.6981 17.7727 33.4003 19.058L40.0095 20.9374C40.1989 20.3943 40.2531 19.7974 40.1394 19.1924C39.7876 17.3372 37.9905 16.1138 36.123 16.4633H36.1203Z" fill="#FE531D"/>
<path id="Vector_42" d="M37.8467 20.682C37.2018 20.5617 36.7331 20.1779 36.7998 19.8247C36.8665 19.4715 37.4434 19.2827 38.0884 19.4029C38.7333 19.5232 39.202 19.907 39.1353 20.2602C39.0686 20.6134 38.4917 20.8022 37.8467 20.682Z" fill="white"/>
</g>
<g id="Clip path group_2">
<mask id="mask1_702_3319" style="mask-type:luminance" maskUnits="userSpaceOnUse" x="24" y="4" width="11" height="11">
<g id="clippath-1">
<path id="Vector_43" d="M29.4487 14.4172C26.6222 14.4172 24.3308 12.1408 24.3308 9.33275C24.3308 6.52468 26.6222 4.24829 29.4487 4.24829C32.2753 4.24829 34.5667 6.52468 34.5667 9.33275C34.5667 12.1408 32.2753 14.4172 29.4487 14.4172Z" fill="white"/>
</g>
</mask>
<g mask="url(#mask1_702_3319)">
<g id="Group_17">
<g id="Group_18">
<path id="Vector_44" d="M29.4488 9.33276L31.1458 3.6272" stroke="white" stroke-width="5.26" stroke-linejoin="round"/>
<path id="Vector_45" d="M34.2852 5.82391L29.4487 9.33275" stroke="white" stroke-width="3.16" stroke-linejoin="round"/>
<path id="Vector_46" d="M29.4487 9.33276L30.9048 15.1055" stroke="white" stroke-width="5.26" stroke-linejoin="round"/>
<path id="Vector_47" d="M23.4594 9.33276H29.4487" stroke="white" stroke-width="2.1" stroke-linejoin="round"/>
</g>
</g>
</g>
</g>
<path id="Vector_48" d="M29.4487 10.7793C28.6445 10.7793 27.9926 10.1316 27.9926 9.33273C27.9926 8.53381 28.6445 7.88617 29.4487 7.88617C30.2529 7.88617 30.9048 8.53381 30.9048 9.33273C30.9048 10.1316 30.2529 10.7793 29.4487 10.7793Z" fill="#B48456"/>
</g>
</g>
</g>
</g>
<defs>
<clipPath id="clip0_702_3319">
<rect width="80" height="85" fill="white" transform="matrix(-1 0 0 1 80 0)"/>
</clipPath>
</defs>
</svg>
