<svg width="129" height="132" viewBox="0 0 129 132" fill="none" xmlns="http://www.w3.org/2000/svg">
<g id="Group">
<g id="Group_2">
<path id="Vector" d="M78.9112 132C104.568 132 125.367 129.936 125.367 127.391C125.367 124.845 104.568 122.781 78.9112 122.781C53.2542 122.781 32.4551 124.845 32.4551 127.391C32.4551 129.936 53.2542 132 78.9112 132Z" fill="#DDD8CE"/>
</g>
<g id="Group_3">
<g id="Group_4">
<g id="Group_5">
<g id="Group_6">
<g id="Group_7">
<g id="Group_8">
<path id="Vector_2" d="M48.7424 118.832C49.4863 119.575 50.2941 120.285 51.1698 120.956C55.5504 124.319 61.6056 126.731 69.6497 127.535C110.786 131.652 124.378 112.355 127.701 82.6652C129.18 69.4336 125.716 60.7038 121.419 55.0888C120.97 54.5027 120.512 53.9496 120.05 53.43C119.788 53.1365 119.521 52.8496 119.247 52.5697C113.698 46.9032 105.691 44.2365 97.8216 45.5317C91.6363 46.5498 86.017 49.8533 81.4575 56.4567C74.1656 67.0151 81.0644 76.0931 60.2231 76.7004C44.2706 77.1662 34.1627 104.287 48.7424 118.832Z" fill="#6E3E45"/>
</g>
</g>
</g>
</g>
<g id="Group_9">
<g id="Group_10">
<g id="Group_11">
<g id="Group_12">
<path id="Vector_3" d="M110.26 54.385C110.26 54.385 116.584 65.1284 110.968 84.2341C105.351 103.34 90.664 106.776 85.8581 106.776C77.4623 106.776 67.707 93.9256 64.3845 87.6954C61.0616 81.4652 67.3315 81.0932 79.0726 80.1717C90.8143 79.2502 98.1153 50.2626 110.26 54.385Z" fill="#341A1B"/>
</g>
</g>
</g>
</g>
<g id="Group_13">
<g id="Group_14">
<g id="Group_15">
<g id="Group_16">
<path id="Vector_4" d="M101.44 112.365C101.533 112.365 101.625 112.328 101.694 112.256C101.827 112.116 101.822 111.894 101.682 111.761C97.4831 107.769 93.4727 105.417 90.8474 104.148C87.9921 102.766 86.1531 102.338 86.076 102.32C85.8873 102.278 85.7 102.395 85.6569 102.584C85.6137 102.772 85.7318 102.959 85.9199 103.003C86.0046 103.022 93.3131 104.77 101.199 112.268C101.266 112.332 101.353 112.365 101.44 112.365Z" fill="#341A1B"/>
</g>
</g>
</g>
</g>
<g id="Group_17">
<g id="Group_18">
<g id="Group_19">
<g id="Group_20">
<path id="Vector_5" d="M100.053 107.688C100.166 107.688 100.276 107.634 100.344 107.533C100.452 107.373 100.409 107.155 100.249 107.047C100.085 106.937 96.1772 104.346 90.1272 103.685C89.9355 103.665 89.7623 103.803 89.7416 103.995C89.7205 104.187 89.8593 104.36 90.0514 104.381C95.9313 105.023 99.8196 107.602 99.8584 107.628C99.9179 107.668 99.9857 107.688 100.053 107.688Z" fill="#341A1B"/>
</g>
</g>
</g>
</g>
<g id="Group_21">
<g id="Group_22">
<g id="Group_23">
<g id="Group_24">
<path id="Vector_6" d="M112.469 76.2697C112.642 76.2697 112.793 76.1401 112.816 75.9634C113.324 71.916 115.064 68.8223 116.435 66.9396C117.926 64.8921 119.316 63.7917 119.33 63.7806C119.482 63.6612 119.508 63.4413 119.389 63.2893C119.27 63.1372 119.051 63.1103 118.899 63.2298C118.839 63.276 117.432 64.3879 115.885 66.5068C114.46 68.4596 112.649 71.6705 112.121 75.8766C112.097 76.0683 112.233 76.2432 112.425 76.2675C112.439 76.2688 112.454 76.2697 112.469 76.2697Z" fill="#341A1B"/>
</g>
</g>
</g>
</g>
<g id="Group_25">
<g id="Group_26">
<g id="Group_27">
<g id="Group_28">
<g id="Group_29">
<path id="Vector_7" d="M48.7424 118.832C49.4863 119.575 50.2941 120.285 51.1698 120.956C56.2326 123.996 62.4086 125.996 69.2121 126.778C71.3231 127.02 73.4526 127.14 75.5838 127.14C81.4597 127.14 87.347 126.225 92.8981 124.427C107.337 119.75 117.755 109.744 122.234 96.252C124.689 88.8549 125.894 81.6617 125.817 74.871C125.756 69.4314 124.876 64.2377 123.201 59.4332C122.643 57.8308 122.036 56.3827 121.42 55.0883C120.97 54.5022 120.512 53.9491 120.05 53.4295C119.789 53.136 119.521 52.8491 119.247 52.5693C120.344 54.4484 121.517 56.8353 122.519 59.7161C125.099 67.1464 127.024 79.4763 121.533 96.0189C117.131 109.282 106.881 119.12 92.6707 123.724C77.5744 128.613 60.1139 126.631 49.2219 118.791C49.0712 118.684 48.868 118.705 48.7424 118.832Z" fill="#341A1B"/>
</g>
</g>
</g>
</g>
</g>
</g>
<g id="Group_30">
<g id="Group_31">
<g id="Group_32">
<g id="Group_33">
<g id="Group_34">
<g id="Group_35">
<g id="Group_36">
<g id="Group_37">
<g id="Group_38">
<g id="Group_39">
<path id="Vector_8" d="M51.409 75.4373C53.7743 74.3871 83.8834 77.7739 91.9786 83.7004C92.2651 86.0846 76.6246 89.5697 71.6266 93.0252C59.0067 90.4978 50.8678 92.0023 50.8678 92.0023C50.8678 92.0023 42.9894 100.159 39.1399 102.793C35.2903 105.427 26.7857 113.555 26.7857 113.555L21.2729 107.843C21.2729 107.843 44.9686 78.297 51.409 75.4373Z" fill="#BF632D"/>
</g>
</g>
</g>
</g>
</g>
</g>
</g>
</g>
<g id="Group_40">
<g id="Group_41">
<g id="Group_42">
<g id="Group_43">
<g id="Group_44">
<g id="Group_45">
<g id="Group_46">
<g id="Group_47">
<path id="Vector_9" d="M29.8751 110.324C29.9716 110.361 30.0844 110.339 30.1602 110.26C30.2625 110.154 30.2594 109.986 30.1536 109.884L24.5126 104.435C24.4069 104.333 24.2385 104.336 24.1363 104.442C24.034 104.548 24.0371 104.716 24.1429 104.818L29.7839 110.266C29.8107 110.293 29.842 110.312 29.8751 110.324Z" fill="#A4312D"/>
</g>
</g>
</g>
</g>
</g>
</g>
</g>
</g>
<g id="Group_48">
<g id="Group_49">
<g id="Group_50">
<g id="Group_51">
<g id="Group_52">
<g id="Group_53">
<g id="Group_54">
<g id="Group_55">
<path id="Vector_10" d="M28.5002 108.997C28.5958 109.033 28.7078 109.012 28.784 108.934C28.8215 108.897 29.7818 107.946 36.0313 103.065C42.8397 97.7473 50.8054 89.3925 50.8852 89.3088C50.9866 89.2021 50.9822 89.0338 50.8759 88.9324C50.7697 88.8311 50.6009 88.8355 50.4996 88.9421C50.4203 89.0254 42.481 97.3529 35.7039 102.646C29.3856 107.58 28.4416 108.523 28.4041 108.561C28.301 108.666 28.3028 108.835 28.4077 108.938C28.4345 108.964 28.4663 108.984 28.5002 108.997Z" fill="#A4312D"/>
</g>
</g>
</g>
</g>
</g>
</g>
</g>
</g>
<g id="Group_56">
<g id="Group_57">
<g id="Group_58">
<g id="Group_59">
<g id="Group_60">
<g id="Group_61">
<g id="Group_62">
<g id="Group_63">
<g id="Group_64">
<path id="Vector_11" d="M15.5347 113.502L19.3996 117.298L23.6074 114.423L26.0264 112.769L21.764 108.351L19.4203 110.29L15.5347 113.502Z" fill="#EBB088"/>
</g>
</g>
</g>
</g>
</g>
</g>
</g>
</g>
<g id="Group_65">
<g id="Group_66">
<g id="Group_67">
<g id="Group_68">
<g id="Group_69">
<g id="Group_70">
<path id="Vector_12" d="M0.000732422 110.24L14.6201 124.597C14.9229 124.507 15.2574 124.285 15.6099 123.974C16.9157 122.827 18.46 120.467 19.4894 119.032C19.6084 118.864 19.7213 118.709 19.8261 118.57C20.0042 118.336 20.1575 118.147 20.2814 118.02C21.2791 117.004 20.2091 116.296 20.2091 116.296C17.3058 116.293 17.7667 112.473 16.0877 112.226C16.0877 112.226 16.0286 112.216 15.8933 112.201C15.7576 112.186 15.5456 112.164 15.238 112.14C14.7819 112.103 14.1151 112.059 13.1826 112.018C10.9976 111.923 8.34586 110.673 5.97533 109.726C5.68314 109.609 5.40462 109.506 5.13976 109.417C4.93527 109.347 4.73872 109.284 4.55054 109.229C2.42812 108.61 1.28626 108.889 0.677655 109.31C0.0968101 109.711 0.000732422 110.24 0.000732422 110.24Z" fill="#7C7A48"/>
</g>
</g>
</g>
</g>
</g>
<g id="Group_71">
<g id="Group_72">
<g id="Group_73">
<g id="Group_74">
<g id="Group_75">
<g id="Group_76">
<path id="Vector_13" d="M4.55078 109.23C4.66096 109.916 4.97165 111.344 5.69924 111.907C5.84247 112.018 6.14171 112.155 6.54671 112.307C7.59118 112.701 9.33503 113.191 10.8735 113.568C12.0965 113.866 13.241 114.107 14.099 114.245C15.504 114.47 15.8587 114.39 16.0328 114.267C16.5683 113.893 16.2787 112.974 15.8936 112.202C15.7578 112.186 15.5458 112.165 15.2382 112.14C15.6838 112.952 15.9059 113.669 15.7234 113.813C15.4846 113.91 14.0144 113.776 10.9053 113.01C8.53208 112.426 6.39336 111.751 6.03507 111.474C5.56308 111.108 5.2797 110.133 5.14 109.418C4.93552 109.347 4.73896 109.285 4.55078 109.23Z" fill="#504F2C"/>
</g>
</g>
</g>
</g>
</g>
</g>
<g id="Group_77">
<g id="Group_78">
<g id="Group_79">
<g id="Group_80">
<g id="Group_81">
<g id="Group_82">
<path id="Vector_14" d="M0 110.239L14.6198 124.597C14.9226 124.506 15.2571 124.284 15.6096 123.974L0.677353 109.31C0.0969487 109.711 0 110.239 0 110.239Z" fill="#504F2C"/>
</g>
</g>
</g>
</g>
</g>
</g>
<g id="Group_83">
<g id="Group_84">
<g id="Group_85">
<g id="Group_86">
<g id="Group_87">
<g id="Group_88">
<g id="Group_89">
<g id="Group_90">
<g id="Group_91">
<g id="Group_92">
<path id="Vector_15" d="M13.1284 123.133L13.5625 123.559C13.6154 122.638 13.9561 121.48 15.0754 120.447C16.5646 119.071 18.3877 118.949 19.4882 119.033C19.6076 118.864 19.7209 118.709 19.8258 118.571C18.6896 118.429 16.5289 118.441 14.7445 120.087C13.6753 121.075 13.2558 122.182 13.1284 123.133Z" fill="#504F2C"/>
</g>
</g>
</g>
</g>
</g>
</g>
</g>
</g>
</g>
</g>
<g id="Group_93">
<g id="Group_94">
<g id="Group_95">
<g id="Group_96">
<g id="Group_97">
<g id="Group_98">
<g id="Group_99">
<g id="Group_100">
<g id="Group_101">
<path id="Vector_16" d="M12.5838 113.124C12.6918 113.23 12.8624 113.253 12.9972 113.17C13.1559 113.073 13.2057 112.865 13.1078 112.706L12.4173 111.582C12.3199 111.423 12.1118 111.373 11.9527 111.471C11.7941 111.568 11.7443 111.776 11.8421 111.935L12.5327 113.059C12.5477 113.083 12.5649 113.105 12.5838 113.124Z" fill="#504F2C"/>
</g>
</g>
</g>
</g>
</g>
</g>
</g>
</g>
</g>
<g id="Group_102">
<g id="Group_103">
<g id="Group_104">
<g id="Group_105">
<g id="Group_106">
<g id="Group_107">
<path id="Vector_17" d="M14.2382 113.255C14.3462 113.361 14.5167 113.384 14.6516 113.301C14.8103 113.204 14.8601 112.996 14.7622 112.837L14.0716 111.713C13.9743 111.554 13.7662 111.504 13.6071 111.602C13.448 111.7 13.3987 111.908 13.4965 112.066L14.1871 113.19C14.2016 113.214 14.2188 113.236 14.2382 113.255Z" fill="#504F2C"/>
</g>
</g>
</g>
</g>
</g>
</g>
<g id="Group_108">
<g id="Group_109">
<g id="Group_110">
<g id="Group_111">
<g id="Group_112">
<g id="Group_113">
<path id="Vector_18" d="M11.1491 112.758C11.2571 112.864 11.4276 112.887 11.5625 112.804C11.7216 112.706 11.7709 112.498 11.6731 112.339L10.9825 111.216C10.8851 111.057 10.6771 111.007 10.518 111.105C10.3589 111.202 10.3096 111.41 10.4074 111.569L11.098 112.693C11.1125 112.718 11.1297 112.739 11.1491 112.758Z" fill="#504F2C"/>
</g>
</g>
</g>
</g>
</g>
</g>
<g id="Group_114">
<g id="Group_115">
<g id="Group_116">
<g id="Group_117">
<g id="Group_118">
<g id="Group_119">
<g id="Group_120">
<g id="Group_121">
<g id="Group_122">
<path id="Vector_19" d="M9.73471 112.371C9.84313 112.477 10.0132 112.5 10.1481 112.417C10.3072 112.32 10.3565 112.112 10.2587 111.953L9.56813 110.829C9.47074 110.67 9.26228 110.621 9.10363 110.719C8.94497 110.816 8.89517 111.024 8.99301 111.183L9.68359 112.307C9.69858 112.331 9.71576 112.352 9.73471 112.371Z" fill="#504F2C"/>
</g>
</g>
</g>
</g>
</g>
</g>
</g>
</g>
</g>
<g id="Group_123">
<g id="Group_124">
<g id="Group_125">
<g id="Group_126">
<g id="Group_127">
<g id="Group_128">
<g id="Group_129">
<g id="Group_130">
<g id="Group_131">
<path id="Vector_20" d="M8.27549 111.865C8.3839 111.971 8.554 111.995 8.68886 111.911C8.84751 111.814 8.89731 111.606 8.79948 111.447L8.1089 110.323C8.01151 110.164 7.80349 110.115 7.6444 110.212C7.48575 110.31 7.43594 110.518 7.53378 110.677L8.22437 111.8C8.23891 111.825 8.25654 111.846 8.27549 111.865Z" fill="#504F2C"/>
</g>
</g>
</g>
</g>
</g>
</g>
</g>
</g>
</g>
<g id="Group_132">
<g id="Group_133">
<g id="Group_134">
<g id="Group_135">
<g id="Group_136">
<g id="Group_137">
<g id="Group_138">
<g id="Group_139">
<g id="Group_140">
<path id="Vector_21" d="M6.80063 111.207C6.9086 111.313 7.07915 111.337 7.21401 111.254C7.37266 111.156 7.42246 110.948 7.32462 110.789L6.63404 109.665C6.53664 109.506 6.32864 109.457 6.16955 109.554C6.01089 109.652 5.96109 109.86 6.05893 110.019L6.7495 111.142C6.76404 111.167 6.78124 111.188 6.80063 111.207Z" fill="#504F2C"/>
</g>
</g>
</g>
</g>
</g>
</g>
</g>
</g>
</g>
</g>
</g>
</g>
<g id="Group_141">
<path id="Vector_22" d="M75.1952 24.557C75.0441 25.3335 74.8973 26.2078 74.7743 27.046C74.6461 27.8926 74.5262 28.7427 74.4165 29.5937C74.2147 31.2975 74.049 33.0026 73.9229 34.7001C73.7929 36.3986 73.7515 38.0905 73.7493 39.7537C73.7409 40.5901 73.7757 41.4059 73.7986 42.226L73.8753 43.4304L73.8943 43.7222C73.9027 43.7517 73.9084 43.7808 73.9115 43.8103C73.9269 43.8614 73.9353 43.9099 73.9533 43.943C74.0172 44.0822 74.0516 44.1206 74.2208 44.277C74.3931 44.4242 74.7325 44.6419 75.2054 44.8411C76.1661 45.2474 77.5679 45.5405 79.0412 45.6467C80.5242 45.764 82.1067 45.7604 83.703 45.6569C84.5015 45.5996 85.3053 45.5207 86.1052 45.4215C86.5049 45.3717 86.9038 45.318 87.2978 45.2563L87.8813 45.1571C88.0606 45.1245 88.2871 45.0835 88.3964 45.0566C91.0239 44.4004 93.6862 45.9984 94.3424 48.6263C94.9986 51.2538 93.4006 53.9161 90.7727 54.5723C90.5598 54.6256 90.347 54.6639 90.1345 54.6882L89.8212 54.7212C89.492 54.7565 89.2792 54.7706 89.0187 54.79L88.2818 54.8362C87.7944 54.8649 87.3114 54.8904 86.828 54.9076C85.862 54.9429 84.896 54.9539 83.9238 54.9385C81.9794 54.916 80.0121 54.8129 77.9765 54.5106C76.9576 54.3616 75.9246 54.1523 74.8568 53.8751C73.792 53.5965 72.6916 53.2272 71.5603 52.6856C70.4326 52.1343 69.2475 51.3988 68.1652 50.2895C67.0828 49.1926 66.1868 47.6532 65.8105 46.0751C65.7087 45.6815 65.6452 45.292 65.5954 44.9059L65.543 44.3334L65.5258 43.9624L65.465 42.5133C65.4557 41.5623 65.4385 40.6073 65.4663 39.6726C65.498 37.7939 65.6161 35.9451 65.7492 34.1109C65.8797 32.2754 66.0515 30.4535 66.2604 28.6387C66.3596 27.7309 66.4592 26.8235 66.5742 25.9156L66.9413 23.1502C67.2454 20.8568 69.3515 19.2439 71.6449 19.5484C73.9388 19.8525 75.5513 21.9586 75.2468 24.2524C75.2362 24.3322 75.2234 24.4111 75.2085 24.4891L75.1952 24.557Z" fill="#9F6F42"/>
</g>
<g id="Group_142">
<g id="Group_143">
<g id="Group_144">
<g id="Group_145">
<g id="Group_146">
<g id="Group_147">
<g id="Group_148">
<g id="Group_149">
<g id="Group_150">
<g id="Group_151">
<path id="Vector_23" d="M32.1021 120.618L36.9273 123.079L40.0788 119.074L41.8905 116.77L36.4989 113.835L34.845 116.387L32.1021 120.618Z" fill="#EBB088"/>
</g>
</g>
</g>
</g>
</g>
</g>
</g>
</g>
<g id="Group_152">
<g id="Group_153">
<g id="Group_154">
<g id="Group_155">
<g id="Group_156">
<g id="Group_157">
<path id="Vector_24" d="M16.3043 122.165L34.5572 131.476C34.819 131.298 35.0715 130.986 35.3144 130.584C36.216 129.098 36.9811 126.384 37.5324 124.706C37.5954 124.51 37.6567 124.329 37.7153 124.165C37.8149 123.888 37.9044 123.661 37.9846 123.502C38.6315 122.234 37.3989 121.88 37.3989 121.88C34.6282 122.748 33.9222 118.965 32.2462 119.233C32.2462 119.233 32.1871 119.242 32.0536 119.269C31.9192 119.294 31.7107 119.338 31.4102 119.406C30.9638 119.508 30.3146 119.666 29.4129 119.907C27.3002 120.472 24.396 120.075 21.8501 119.882C21.5363 119.859 21.2392 119.843 20.9603 119.838C20.7443 119.833 20.5381 119.832 20.342 119.836C18.1314 119.882 17.1257 120.491 16.6714 121.074C16.2373 121.632 16.3043 122.165 16.3043 122.165Z" fill="#7C7A48"/>
</g>
</g>
</g>
</g>
</g>
<g id="Group_158">
<g id="Group_159">
<g id="Group_160">
<g id="Group_161">
<g id="Group_162">
<g id="Group_163">
<path id="Vector_25" d="M20.3416 119.837C20.6527 120.458 21.3772 121.727 22.2401 122.047C22.4098 122.109 22.7363 122.15 23.1687 122.174C24.2832 122.236 26.0936 122.181 27.6744 122.078C28.9304 121.996 30.0947 121.882 30.9545 121.757C32.3621 121.55 32.6763 121.367 32.8059 121.198C33.2047 120.68 32.6525 119.89 32.0536 119.269C31.9192 119.295 31.7108 119.338 31.4102 119.407C32.0788 120.048 32.5054 120.665 32.3749 120.857C32.1761 121.021 30.7333 121.334 27.5378 121.536C25.0985 121.691 22.8558 121.688 22.4314 121.532C21.8712 121.324 21.3085 120.479 20.9607 119.839C20.7439 119.833 20.5381 119.833 20.3416 119.837Z" fill="#504F2C"/>
</g>
</g>
</g>
</g>
</g>
</g>
<g id="Group_164">
<g id="Group_165">
<g id="Group_166">
<g id="Group_167">
<g id="Group_168">
<g id="Group_169">
<path id="Vector_26" d="M16.3037 122.165L34.5571 131.476C34.8188 131.298 35.0709 130.986 35.3142 130.585L16.6708 121.075C16.2375 121.632 16.3037 122.165 16.3037 122.165Z" fill="#504F2C"/>
</g>
</g>
</g>
</g>
</g>
</g>
<g id="Group_170">
<g id="Group_171">
<g id="Group_172">
<g id="Group_173">
<g id="Group_174">
<g id="Group_175">
<g id="Group_176">
<g id="Group_177">
<g id="Group_178">
<g id="Group_179">
<path id="Vector_27" d="M32.6949 130.526L33.237 130.803C33.0113 129.908 32.9889 128.701 33.7469 127.379C34.7547 125.62 36.4572 124.957 37.532 124.707C37.5951 124.51 37.6568 124.328 37.7154 124.165C36.589 124.371 34.5313 125.03 33.3234 127.136C32.5997 128.399 32.5319 129.581 32.6949 130.526Z" fill="#504F2C"/>
</g>
</g>
</g>
</g>
</g>
</g>
</g>
</g>
</g>
</g>
<g id="Group_180">
<g id="Group_181">
<g id="Group_182">
<g id="Group_183">
<g id="Group_184">
<g id="Group_185">
<g id="Group_186">
<g id="Group_187">
<g id="Group_188">
<path id="Vector_28" d="M29.1731 121.142C29.3079 121.21 29.4776 121.181 29.5811 121.062C29.7032 120.921 29.6882 120.708 29.5477 120.585L28.5517 119.721C28.4111 119.598 28.1978 119.613 28.0753 119.754C27.9532 119.895 27.9682 120.108 28.1088 120.231L29.1047 121.095C29.1263 121.114 29.1493 121.129 29.1731 121.142Z" fill="#504F2C"/>
</g>
</g>
</g>
</g>
</g>
</g>
</g>
</g>
</g>
<g id="Group_189">
<g id="Group_190">
<g id="Group_191">
<g id="Group_192">
<g id="Group_193">
<g id="Group_194">
<path id="Vector_29" d="M30.7907 120.77C30.9256 120.839 31.0953 120.81 31.1988 120.69C31.3209 120.55 31.3059 120.336 31.1653 120.214L30.1693 119.349C30.0287 119.227 29.8155 119.242 29.6929 119.383C29.5709 119.524 29.5859 119.737 29.7264 119.859L30.7224 120.724C30.744 120.743 30.7669 120.758 30.7907 120.77Z" fill="#504F2C"/>
</g>
</g>
</g>
</g>
</g>
</g>
<g id="Group_195">
<g id="Group_196">
<g id="Group_197">
<g id="Group_198">
<g id="Group_199">
<g id="Group_200">
<path id="Vector_30" d="M27.695 121.223C27.8299 121.291 27.9995 121.263 28.1031 121.143C28.2252 121.002 28.2102 120.789 28.0696 120.666L27.0736 119.802C26.9331 119.679 26.7198 119.694 26.5972 119.835C26.4752 119.976 26.4901 120.19 26.6307 120.312L27.6267 121.176C27.6479 121.195 27.6708 121.211 27.695 121.223Z" fill="#504F2C"/>
</g>
</g>
</g>
</g>
</g>
</g>
<g id="Group_201">
<g id="Group_202">
<g id="Group_203">
<g id="Group_204">
<g id="Group_205">
<g id="Group_206">
<g id="Group_207">
<g id="Group_208">
<g id="Group_209">
<path id="Vector_31" d="M26.2297 121.278C26.3645 121.347 26.5342 121.318 26.6378 121.198C26.7599 121.058 26.7449 120.845 26.6043 120.722L25.6083 119.857C25.4677 119.735 25.2544 119.75 25.1319 119.891C25.0098 120.031 25.0248 120.245 25.1654 120.367L26.1614 121.232C26.1825 121.25 26.2054 121.266 26.2297 121.278Z" fill="#504F2C"/>
</g>
</g>
</g>
</g>
</g>
</g>
</g>
</g>
</g>
<g id="Group_210">
<g id="Group_211">
<g id="Group_212">
<g id="Group_213">
<g id="Group_214">
<g id="Group_215">
<g id="Group_216">
<g id="Group_217">
<g id="Group_218">
<path id="Vector_32" d="M24.6857 121.233C24.8206 121.302 24.9903 121.273 25.0938 121.153C25.2159 121.013 25.2009 120.8 25.0603 120.677L24.0644 119.812C23.9233 119.69 23.7105 119.705 23.588 119.846C23.4659 119.986 23.4809 120.2 23.6214 120.322L24.6174 121.187C24.6386 121.206 24.6615 121.221 24.6857 121.233Z" fill="#504F2C"/>
</g>
</g>
</g>
</g>
</g>
</g>
</g>
</g>
</g>
<g id="Group_219">
<g id="Group_220">
<g id="Group_221">
<g id="Group_222">
<g id="Group_223">
<g id="Group_224">
<g id="Group_225">
<g id="Group_226">
<g id="Group_227">
<path id="Vector_33" d="M23.0813 121.048C23.2161 121.117 23.3858 121.088 23.4893 120.968C23.6114 120.828 23.5964 120.614 23.4559 120.492L22.4599 119.627C22.3193 119.505 22.106 119.52 21.9835 119.661C21.8614 119.801 21.8764 120.015 22.017 120.137L23.0129 121.002C23.0341 121.02 23.057 121.036 23.0813 121.048Z" fill="#504F2C"/>
</g>
</g>
</g>
</g>
</g>
</g>
</g>
</g>
</g>
</g>
</g>
<g id="Group_228">
<g id="Group_229">
<path id="Vector_34" d="M35.6501 114.217L42.2536 117.634C42.2536 117.634 47.5755 111.096 50.2153 107.251C52.856 103.406 58.1647 93.7995 58.1647 93.7995C58.1647 93.7995 62.5431 98.233 73.8925 103.29C99.0393 114.497 99.0653 91.7736 99.0653 91.7736C97.6511 92.4858 89.7203 88.3569 85.9853 87.1145C75.5565 84.5532 66.8069 82.7741 60.0597 82.299C58.4349 82.1844 56.9409 82.1795 55.5765 82.2818C53.822 82.4131 51.7031 84.4694 49.5089 87.4812C42.9138 96.5323 35.6501 114.217 35.6501 114.217Z" fill="#FE812D"/>
</g>
</g>
<g id="Group_230">
<g id="Group_231">
<g id="Group_232">
<g id="Group_233">
<g id="Group_234">
<g id="Group_235">
<g id="Group_236">
<g id="Group_237">
<path id="Vector_35" d="M43.2628 113.679C43.3729 113.736 43.5118 113.709 43.5924 113.609C46.9849 109.386 50.3426 103.683 53.0402 99.1004C55.2772 95.3006 57.3899 91.7111 58.1219 91.5273C58.7147 91.3784 60.2589 92.533 62.2138 93.9953C66.1026 96.9035 71.9789 101.298 79.9225 103.317C84.2493 104.417 88.0592 104.011 91.2463 102.109C96.7428 98.8289 98.4765 92.1333 98.4932 92.0659C98.5289 91.9235 98.4421 91.7786 98.2998 91.7433C98.1574 91.7076 98.0129 91.794 97.9767 91.9363C97.9604 92.0015 96.2756 98.4904 90.9696 101.654C87.9089 103.479 84.2365 103.865 80.0534 102.802C72.2124 100.808 66.3873 96.4517 62.5324 93.5691C60.2236 91.8429 58.8305 90.8006 57.9919 91.0113C57.0862 91.2387 55.5134 93.849 52.5814 98.8302C49.8922 103.398 46.546 109.083 43.1773 113.275C43.0852 113.39 43.1037 113.557 43.2182 113.649C43.2323 113.661 43.2473 113.671 43.2628 113.679Z" fill="#BF632D"/>
</g>
</g>
</g>
</g>
</g>
</g>
</g>
</g>
<g id="Group_238">
<g id="Group_239">
<g id="Group_240">
<g id="Group_241">
<g id="Group_242">
<g id="Group_243">
<g id="Group_244">
<g id="Group_245">
<path id="Vector_36" d="M37.2877 110.744C37.2894 110.745 37.2912 110.745 37.2929 110.746L44.7179 114.389C44.8496 114.454 45.0092 114.399 45.074 114.268C45.1388 114.136 45.0872 113.974 44.9524 113.911L37.5274 110.269C37.3956 110.204 37.2361 110.258 37.1713 110.39C37.107 110.521 37.1594 110.678 37.2877 110.744Z" fill="#BF632D"/>
</g>
</g>
</g>
</g>
</g>
</g>
</g>
</g>
</g>
<g id="Group_246">
<g id="Group_247">
<g id="Group_248">
<g id="Group_249">
<g id="Group_250">
<path id="Vector_37" d="M110.972 63.2249C110.522 64.807 110.09 66.3759 109.755 67.8611C109.531 68.8703 109.35 69.8398 109.24 70.7476C108.363 78.006 105.119 89.5436 97.3276 99.3051C94.0796 103.377 84.4018 84.9338 79.5585 81.9106C71.4496 76.847 79.1795 76.4371 80.484 69.8706C81.5461 64.5073 81.5505 65.8074 80.625 62.1584C80.5148 61.7221 80.4311 61.2946 80.3694 60.8803C80.3297 60.5983 80.2989 60.3251 80.2812 60.0518C80.0565 56.8347 81.3345 54.1729 83.7143 51.7843C86.5921 48.8977 88.0728 45.3368 89.4126 44.7771C90.7567 44.213 95.8865 44.5876 95.8865 44.5876L102.947 45.2266C104.163 45.3412 105.34 45.685 106.424 46.2402C108.173 47.1349 110.399 47.2935 112.382 49.1577C114.594 51.2378 112.664 57.2886 110.972 63.2249Z" fill="#C0905F"/>
</g>
</g>
</g>
</g>
<g id="Group_251">
<g id="Group_252">
<g id="Group_253">
<g id="Group_254">
<path id="Vector_38" d="M99.0331 56.2654L97.4038 61.0404C97.4038 61.0404 90.1266 58.9594 85.2136 58.0221L87.1051 53.675C87.1051 53.675 94.2603 54.7631 99.0331 56.2654Z" fill="#9F6F42"/>
</g>
</g>
</g>
</g>
<g id="Group_255">
<g id="Group_256">
<g id="Group_257">
<g id="Group_258">
<path id="Vector_39" d="M104.097 45.1382C103.988 45.1074 103.873 45.1541 103.816 45.2519C102.09 48.2174 97.2774 55.9239 93.7095 56.2642C93.687 56.2664 93.665 56.2681 93.6425 56.2694C92.684 56.336 92.0357 56.1029 91.7158 55.5758C90.6841 53.876 92.9828 49.3747 93.9616 47.7732C94.0242 47.6709 94.0123 47.5356 93.9237 47.4545C93.8043 47.3452 93.6223 47.3756 93.5425 47.5065C93.3927 47.7511 89.8908 53.5261 91.2914 55.8336C91.7153 56.5325 92.5183 56.8459 93.6769 56.7652C93.702 56.7635 93.728 56.7613 93.7531 56.7591C97.5969 56.3928 102.495 48.5342 104.249 45.5027C104.33 45.3625 104.257 45.1849 104.102 45.1404C104.1 45.1391 104.099 45.1386 104.097 45.1382Z" fill="white"/>
</g>
</g>
</g>
</g>
<g id="Group_259">
<g id="Group_260">
<g id="Group_261">
<g id="Group_262">
<path id="Vector_40" d="M94.8173 99.5635C94.8808 99.5573 94.942 99.5269 94.9857 99.474C101.405 91.6657 104.875 82.091 106.654 75.4337C108.581 68.2243 108.998 62.7821 109.002 62.7279C109.012 62.5913 108.91 62.4723 108.773 62.4621C108.636 62.4533 108.517 62.5547 108.507 62.6917C108.503 62.7455 108.088 68.1494 106.172 75.3165C104.404 81.9231 100.963 91.422 94.6022 99.1585C94.515 99.2642 94.5304 99.4207 94.6362 99.5079C94.6891 99.5516 94.7543 99.5697 94.8173 99.5635Z" fill="#9F6F42"/>
</g>
</g>
</g>
</g>
<g id="Group_263">
<g id="Group_264">
<g id="Group_265">
<g id="Group_266">
<path id="Vector_41" d="M93.3355 86.695C93.3664 86.6919 93.3977 86.6831 93.4268 86.6676C93.5484 86.6042 93.5951 86.4539 93.5317 86.3327C91.0792 81.6423 87.8647 78.5645 85.5995 76.8083C83.1408 74.9014 81.2876 74.1165 81.2101 74.0843C81.0836 74.0314 80.9382 74.0909 80.8853 74.2174C80.8324 74.3439 80.8919 74.4893 81.0184 74.5422C81.0369 74.5501 82.901 75.3412 85.3104 77.2124C87.5315 78.9373 90.6843 81.9596 93.0914 86.5632C93.1399 86.6549 93.2381 86.7042 93.3355 86.695Z" fill="#9F6F42"/>
</g>
</g>
</g>
</g>
<g id="Group_267">
<g id="Group_268">
<g id="Group_269">
<g id="Group_270">
<path id="Vector_42" d="M93.7906 78.3426C93.8611 78.336 93.9285 78.299 93.9717 78.2364C94.0497 78.1236 94.021 77.9689 93.9082 77.8909C93.7059 77.7516 88.9045 74.4724 84.2736 74.0013C84.1374 73.9876 84.0154 74.0868 84.0013 74.2234C83.9876 74.36 84.0868 74.4816 84.2229 74.4957C88.7282 74.9541 93.5777 78.2668 93.6257 78.3003C93.6764 78.3342 93.7346 78.3479 93.7906 78.3426Z" fill="#9F6F42"/>
</g>
</g>
</g>
</g>
</g>
<g id="Group_271">
<g id="Group_272">
<g id="Group_273">
<path id="Vector_43" d="M81.2886 66.8216C81.274 66.8216 81.259 66.8202 81.2445 66.8172C81.1229 66.7929 81.0444 66.6748 81.0687 66.5532C81.074 66.5263 81.4093 64.7591 80.7143 63.0214C79.6024 60.2415 78.9542 56.9045 82.5798 53.233C86.0393 49.7294 87.086 47.6475 87.0961 47.6273C87.1508 47.5162 87.2848 47.4704 87.3963 47.525C87.5073 47.5797 87.5532 47.7141 87.4985 47.8251C87.4562 47.9115 86.4183 49.9837 82.8989 53.5481C79.4645 57.0261 80.0193 60.0766 81.1308 62.8548C81.8787 64.7247 81.5239 66.5638 81.5085 66.6413C81.4869 66.748 81.3935 66.8216 81.2886 66.8216Z" fill="#9F6F42"/>
</g>
</g>
</g>
<g id="Group_274">
<g id="Group_275">
<path id="Vector_44" d="M111.031 58.023L110.604 58.2279L110.204 58.4139C109.939 58.5347 109.676 58.6528 109.412 58.7678L108.619 59.1045L107.822 59.4262C106.757 59.8462 105.68 60.2353 104.587 60.5932C102.398 61.3062 100.153 61.9148 97.7906 62.3516C97.2005 62.4648 96.6016 62.5592 95.9934 62.6451C95.3852 62.7293 94.7678 62.809 94.1363 62.861C92.8732 62.9677 91.5613 63.0254 90.147 62.939C88.7297 62.85 87.2067 62.657 85.4584 62.0356C84.5872 61.7187 83.6502 61.2873 82.7107 60.6135C82.2426 60.2785 81.7772 59.8876 81.3405 59.435L81.1783 59.2623L81.0986 59.1754L81.0567 59.127L80.8892 58.9326C80.7773 58.8031 80.6654 58.6731 80.56 58.5422C80.1268 58.0199 79.7244 57.4933 79.3499 56.9587C78.9726 56.425 78.6196 55.8887 78.2865 55.3502C77.9515 54.8121 77.6338 54.2726 77.3403 53.7279C77.0432 53.1846 76.7616 52.6403 76.4941 52.0951C76.3588 51.8228 76.2293 51.5504 76.101 51.2768C75.9772 51.0026 75.8511 50.729 75.7326 50.4549C75.4911 49.9071 75.2628 49.3584 75.0424 48.8102C74.823 48.261 74.6198 47.7093 74.4206 47.1588C74.2219 46.608 74.0315 46.058 73.8547 45.5045C73.1364 43.2961 72.5622 41.0763 72.0959 38.8455C71.98 38.2875 71.8698 37.7296 71.7707 37.169C71.6684 36.6093 71.5759 36.0483 71.4908 35.4855C71.4036 34.9232 71.3282 34.3582 71.2599 33.7897L71.166 32.9312L71.1229 32.4958L71.0823 32.0278C70.9043 29.9785 72.4212 28.1734 74.4704 27.9954C76.1755 27.8473 77.7118 28.8728 78.2825 30.4021L78.3543 30.5977L79.4182 33.4544L79.9726 34.9038L80.5393 36.3445C81.3017 38.2589 82.1069 40.1398 82.9557 41.9603C83.3832 42.8695 83.8173 43.765 84.276 44.6341C84.7242 45.5075 85.2024 46.3515 85.6854 47.1668C86.168 47.983 86.6805 48.7586 87.1961 49.4893C87.4552 49.8551 87.7197 50.2059 87.9885 50.5386C88.2587 50.8709 88.5244 51.1952 88.7967 51.4914C88.8642 51.5685 88.9325 51.6395 89.0008 51.7113L89.1026 51.8193L89.1282 51.8462L89.118 51.8325C89.111 51.8237 89.1035 51.8149 89.0955 51.8065C89.0378 51.7395 88.9906 51.6941 88.9646 51.6694C88.9104 51.6179 88.9607 51.6509 89.107 51.6946C89.2529 51.7395 89.4891 51.795 89.7782 51.8369C90.0673 51.8819 90.4079 51.9202 90.779 51.9396C91.5234 51.9744 92.377 51.9669 93.2685 51.9034C93.7145 51.8695 94.1724 51.8373 94.6365 51.7871C95.1005 51.7395 95.5712 51.6778 96.048 51.6179C97.9532 51.3587 99.928 51.0049 101.916 50.6038C102.911 50.4029 103.911 50.1935 104.911 49.9767L106.412 49.6515L107.156 49.4902L107.523 49.4117L107.703 49.3747L107.789 49.3571C107.817 49.3518 107.847 49.3452 107.859 49.3452L109.044 49.3412C111.566 49.3324 113.616 51.3689 113.625 53.8901C113.632 55.7089 112.569 57.284 111.031 58.023Z" fill="#C0905F"/>
</g>
<g id="Group_276">
<path id="Vector_45" d="M78.7253 36.1779C78.6856 36.1444 78.6547 36.0985 78.6393 36.0448L77.3278 31.4386C77.2868 31.2945 77.3705 31.1437 77.5147 31.1028C77.6588 31.0618 77.8095 31.1455 77.8505 31.2896L79.162 35.8958C79.203 36.0404 79.1193 36.1907 78.9751 36.2316C78.8848 36.2576 78.7922 36.2343 78.7253 36.1779Z" fill="#9F6F42"/>
</g>
<g id="Group_277">
<path id="Vector_46" d="M76.2475 37.782C76.206 37.7472 76.1747 37.6991 76.1602 37.6427L74.9276 32.9039C74.8897 32.7589 74.9769 32.6104 75.1224 32.5725C75.2673 32.5346 75.4159 32.6218 75.4538 32.7672L76.6864 37.5061C76.7243 37.6515 76.637 37.7996 76.4916 37.8375C76.4026 37.8604 76.3127 37.8366 76.2475 37.782Z" fill="#9F6F42"/>
</g>
<g id="Group_278">
<path id="Vector_47" d="M73.1375 38.1358C73.0908 38.0962 73.0569 38.0407 73.0454 37.9759L72.183 33.1105C72.1566 32.9629 72.2553 32.8219 72.4033 32.7954C72.5514 32.7694 72.692 32.8677 72.7184 33.0158L73.5809 37.8811C73.6073 38.0288 73.5086 38.1698 73.3605 38.1962C73.2777 38.2108 73.197 38.1861 73.1375 38.1358Z" fill="#9F6F42"/>
</g>
<g id="Group_279">
<path id="Vector_48" d="M71.9558 37.8891C71.876 37.8217 71.839 37.711 71.8707 37.6044C71.9134 37.4603 72.0646 37.3783 72.2083 37.4206C76.7193 38.7551 79.7042 34.9381 79.7337 34.8994C79.8249 34.7804 79.9955 34.7575 80.1145 34.8487C80.2348 34.9395 80.2564 35.11 80.1656 35.2295C80.133 35.2722 79.352 36.2854 77.9638 37.1324C76.6757 37.9182 74.6044 38.6969 72.054 37.9424C72.017 37.9314 71.984 37.9129 71.9558 37.8891Z" fill="#9F6F42"/>
</g>
<g id="Group_280">
<g id="Group_281">
<path id="Vector_49" d="M86.3022 56.391C86.1996 56.3042 86.1749 56.1522 86.2498 56.0363C87.4855 54.1232 87.1986 50.9149 87.1955 50.8827C87.1814 50.7333 87.2912 50.6007 87.4406 50.5866C87.59 50.5724 87.7226 50.6817 87.7367 50.8311C87.7499 50.97 88.0457 54.2585 86.7064 56.3311C86.6248 56.4571 86.4569 56.4933 86.3305 56.4117C86.3208 56.4056 86.3111 56.3985 86.3022 56.391Z" fill="#9F6F42"/>
</g>
<g id="Group_282">
<path id="Vector_50" d="M88.5401 55.2015C88.4819 55.1522 88.4445 55.0786 88.4436 54.9966C88.4432 54.9781 88.4119 53.1554 87.3013 51.9805C87.1982 51.8716 87.203 51.6993 87.3123 51.5962C87.4212 51.493 87.593 51.497 87.6966 51.6068C88.9566 52.9399 88.9866 54.9085 88.9874 54.9918C88.9888 55.1416 88.868 55.2646 88.7177 55.2659C88.6503 55.2659 88.5882 55.2421 88.5401 55.2015Z" fill="#9F6F42"/>
</g>
</g>
<g id="Group_283">
<path id="Vector_51" d="M108.276 59.5531C107.502 59.7395 89.1895 64.1113 83.9218 61.951C83.4771 61.7689 83.0368 61.5155 82.6041 61.2075C82.2154 60.936 81.8337 60.6187 81.4618 60.2763C81.4398 60.0053 81.4256 59.743 81.4243 59.4817C82.2921 60.3503 83.2145 61.0748 84.128 61.449C89.2309 63.5445 107.963 59.071 108.151 59.0229C108.297 58.9894 108.443 59.078 108.476 59.2235C108.515 59.3689 108.421 59.5196 108.276 59.5531Z" fill="#9F6F42"/>
</g>
</g>
<g id="Group_284">
<g id="Group_285">
<g id="Group_286">
<g id="Group_287">
<path id="Vector_52" d="M108.638 26.5674C108.098 29.5703 110.094 32.4428 113.098 32.9827C116.101 33.523 118.973 31.5261 119.514 28.5228C120.053 25.5198 118.057 22.6473 115.054 22.1075C112.05 21.5676 109.178 23.564 108.638 26.5674Z" fill="#341A1B"/>
</g>
</g>
</g>
<g id="Group_288">
<g id="Group_289">
<g id="Group_290">
<g id="Group_291">
<g id="Group_292">
<path id="Vector_53" d="M99.365 25.9495C99.9542 25.6873 100.408 25.1708 100.98 24.8209C100.98 24.8209 105.225 21.5019 111.506 26.7031C115.984 30.4125 115.074 35.0976 112.218 39.0066C110.236 41.7196 106.88 43.065 103.573 42.4705C95.6649 41.0484 90.8238 29.7492 99.365 25.9495Z" fill="#341A1B"/>
</g>
</g>
</g>
</g>
</g>
<g id="Group_293">
<g id="Group_294">
<g id="Group_295">
<g id="Group_296">
<g id="Group_297">
<g id="Group_298">
<g id="Group_299">
<g id="Group_300">
<g id="Group_301">
<g id="Group_302">
<g id="Group_303">
<path id="Vector_54" d="M96.974 33.3265C96.974 33.3265 96.3103 31.3944 95.0495 32.5768C93.7882 33.7588 93.1774 36.9076 95.2364 37.1553L96.974 33.3265Z" fill="#FF7D5B"/>
</g>
</g>
</g>
</g>
</g>
</g>
</g>
</g>
</g>
<g id="Group_304">
<g id="Group_305">
<g id="Group_306">
<g id="Group_307">
<g id="Group_308">
<g id="Group_309">
<g id="Group_310">
<g id="Group_311">
<g id="Group_312">
<g id="Group_313">
<path id="Vector_55" d="M97.0411 41.9404L95.3364 45.8331C95.3364 45.8331 96.0085 49.9968 103.946 48.2618C104.186 46.7736 104.577 44.1813 105.532 42.7927C105.532 42.7927 105.003 42.7764 104.076 42.9306C103.895 42.9606 103.697 42.9474 103.489 42.9531C101.656 42.9998 98.9753 42.872 97.0411 41.9404Z" fill="#EBB088"/>
</g>
</g>
</g>
</g>
</g>
</g>
</g>
</g>
</g>
<g id="Group_314">
<g id="Group_315">
<g id="Group_316">
<g id="Group_317">
<g id="Group_318">
<g id="Group_319">
<g id="Group_320">
<g id="Group_321">
<g id="Group_322">
<path id="Vector_56" d="M97.0409 41.9404L96.2332 43.7856C98.0956 44.0716 101.542 44.3378 104.077 42.9302C103.893 42.9394 103.697 42.9469 103.489 42.9527C101.656 42.9998 98.9752 42.872 97.0409 41.9404Z" fill="black"/>
</g>
</g>
</g>
</g>
</g>
</g>
</g>
</g>
</g>
</g>
<g id="Group_323">
<g id="Group_324">
<g id="Group_325">
<g id="Group_326">
<g id="Group_327">
<g id="Group_328">
<g id="Group_329">
<g id="Group_330">
<g id="Group_331">
<path id="Vector_57" d="M94.1262 39.2953C96.1363 44.0888 105.226 42.8434 105.519 42.802C105.523 42.8011 105.526 42.8006 105.526 42.8006C105.717 42.5159 105.899 42.2308 106.075 41.9466C107.559 39.5421 108.526 37.1478 109.154 34.7592C110.218 32.3979 109.658 29.5946 107.713 27.8847C105.696 26.1135 103.187 26.3255 101.769 26.2223C99.6284 26.0672 97.4641 28.0689 96.082 31.5835C94.3858 35.8975 93.6278 38.105 94.1262 39.2953Z" fill="#EBB088"/>
</g>
</g>
</g>
</g>
</g>
</g>
</g>
</g>
</g>
<g id="Group_332">
<g id="Group_333">
<g id="Group_334">
<path id="Vector_58" d="M106.525 27.0768C106.525 27.0768 104.32 23.1008 100.372 23.8262C95.9976 24.6301 96.0025 28.5845 97.4361 28.8454C98.8692 29.1067 101.996 27.4347 101.996 27.4347C101.996 27.4347 104.101 32.4168 108.116 32.9906C112.13 33.5644 110.363 27.5347 106.525 27.0768Z" fill="#341A1B"/>
</g>
</g>
</g>
<g id="Group_335">
<g id="Group_336">
<g id="Group_337">
<g id="Group_338">
<g id="Group_339">
<g id="Group_340">
<g id="Group_341">
<g id="Group_342">
<g id="Group_343">
<path id="Vector_59" d="M99.5509 29.2495C99.5509 29.2495 100.223 29.5906 99.7276 30.1353C99.2327 30.68 98.1063 29.4284 96.644 30.2172C96.644 30.2172 96.8159 28.5152 99.5509 29.2495Z" fill="#341A1B"/>
</g>
</g>
</g>
</g>
</g>
</g>
</g>
</g>
</g>
<g id="Group_344">
<g id="Group_345">
<g id="Group_346">
<g id="Group_347">
<g id="Group_348">
<g id="Group_349">
<g id="Group_350">
<g id="Group_351">
<g id="Group_352">
<path id="Vector_60" d="M102.716 30.4826C102.716 30.4826 101.991 30.2794 101.987 31.0154C101.983 31.7513 103.66 31.5918 104.202 33.162C104.202 33.162 105.227 31.7919 102.716 30.4826Z" fill="#341A1B"/>
</g>
</g>
</g>
</g>
</g>
</g>
</g>
</g>
</g>
<g id="Group_353">
<g id="Group_354">
<g id="Group_355">
<g id="Group_356">
<g id="Group_357">
<g id="Group_358">
<g id="Group_359">
<g id="Group_360">
<g id="Group_361">
<g id="Group_362">
<path id="Vector_61" d="M100.996 35.5639C100.869 35.8896 101.437 36.4153 102.265 36.7379C103.093 37.0605 103.867 37.0579 103.994 36.7318C104.121 36.4061 103.552 35.8803 102.725 35.5577C101.896 35.2356 101.122 35.2382 100.996 35.5639Z" fill="#FF7D5B"/>
</g>
</g>
</g>
</g>
</g>
</g>
</g>
</g>
</g>
</g>
<g id="Group_363" opacity="0.8">
<g id="Group_364">
<g id="Group_365">
<g id="Group_366">
<g id="Group_367">
<g id="Group_368">
<g id="Group_369">
<g id="Group_370">
<g id="Group_371">
<g id="Group_372">
<path id="Vector_62" d="M94.6641 33.757C94.7751 33.8139 94.8941 33.8667 95.0184 33.9152C95.8456 34.2374 96.6199 34.2347 96.7468 33.9086C96.8737 33.5829 96.3057 33.0567 95.4785 32.7346C95.3666 32.691 95.2555 32.6535 95.1471 32.6218L94.6641 33.757Z" fill="#FF7D5B"/>
</g>
</g>
</g>
</g>
</g>
</g>
</g>
</g>
</g>
</g>
<g id="Group_373">
<g id="Group_374">
<g id="Group_375">
<g id="Group_376">
<g id="Group_377">
<g id="Group_378">
<g id="Group_379">
<g id="Group_380">
<g id="Group_381">
<g id="Group_382">
<path id="Vector_63" d="M101.421 33.6636C101.247 34.1114 101.308 34.553 101.559 34.6508C101.809 34.7482 102.154 34.4648 102.329 34.0171C102.503 33.5693 102.441 33.1277 102.191 33.0299C101.94 32.9325 101.595 33.2163 101.421 33.6636Z" fill="black"/>
</g>
</g>
</g>
</g>
</g>
</g>
</g>
</g>
</g>
<g id="Group_383">
<g id="Group_384">
<g id="Group_385">
<g id="Group_386">
<g id="Group_387">
<g id="Group_388">
<g id="Group_389">
<g id="Group_390">
<g id="Group_391">
<path id="Vector_64" d="M96.9925 31.9387C96.818 32.3865 96.8797 32.8281 97.1305 32.9259C97.3808 33.0233 97.7254 32.7399 97.8995 32.2922C98.074 31.8444 98.0119 31.4024 97.7616 31.305C97.5112 31.2072 97.1671 31.491 96.9925 31.9387Z" fill="black"/>
</g>
</g>
</g>
</g>
</g>
</g>
</g>
</g>
</g>
<g id="Group_392">
<g id="Group_393">
<g id="Group_394">
<g id="Group_395">
<g id="Group_396">
<g id="Group_397">
<g id="Group_398">
<g id="Group_399">
<g id="Group_400">
<path id="Vector_65" d="M97.4868 37.0495C96.9703 36.8481 96.4899 36.4696 96.1836 35.7935C96.1387 35.6939 96.1827 35.5772 96.2823 35.5318C96.3819 35.4868 96.4987 35.5309 96.5437 35.6305C97.3775 37.4713 99.7348 36.7252 99.8348 36.6926C99.9384 36.6586 100.05 36.715 100.084 36.8186C100.118 36.9222 100.062 37.0337 99.9582 37.0681C99.9388 37.0742 98.6247 37.4929 97.4868 37.0495Z" fill="black"/>
</g>
</g>
</g>
</g>
</g>
</g>
</g>
</g>
</g>
<g id="Group_401">
<g id="Group_402">
<g id="Group_403">
<g id="Group_404">
<g id="Group_405">
<g id="Group_406">
<g id="Group_407">
<g id="Group_408">
<g id="Group_409">
<path id="Vector_66" d="M98.3221 34.4229C98.1075 34.3392 97.9761 34.2467 97.9656 34.2387C97.9206 34.2065 97.8911 34.1567 97.8845 34.1021C97.8779 34.047 97.8946 33.9919 97.9303 33.9501L99.3723 32.2635C99.4433 32.1802 99.568 32.1709 99.6508 32.2419C99.7337 32.3129 99.7434 32.4376 99.6729 32.5204L98.3891 34.0223C98.5702 34.1034 98.8646 34.1955 99.2066 34.1537C99.315 34.1404 99.4137 34.2176 99.4269 34.326C99.4401 34.4344 99.363 34.5331 99.2546 34.5463C98.8783 34.5917 98.5522 34.5124 98.3221 34.4229Z" fill="black"/>
</g>
</g>
</g>
</g>
</g>
</g>
</g>
</g>
</g>
</g>
<g id="Group_410">
<g id="Group_411">
<g id="Group_412">
<g id="Group_413">
<g id="Group_414">
<g id="Group_415">
<g id="Group_416">
<g id="Group_417">
<g id="Group_418">
<path id="Vector_67" d="M104.77 40.4191C104.771 40.4777 104.828 42.0717 105.518 42.8024C105.519 42.8028 105.519 42.8037 105.52 42.8037C105.524 42.8019 105.526 42.8011 105.526 42.8011C105.716 42.5164 105.899 42.2312 106.074 41.947C106.044 41.9294 105.248 41.4477 104.77 40.4191Z" fill="black"/>
</g>
</g>
</g>
</g>
</g>
</g>
</g>
</g>
</g>
<g id="Group_419">
<g id="Group_420">
<g id="Group_421">
<g id="Group_422">
<g id="Group_423">
<g id="Group_424">
<g id="Group_425">
<g id="Group_426">
<g id="Group_427">
<path id="Vector_68" d="M106.801 37.6299C106.801 37.6299 109.527 35.923 110.102 38.3231C110.576 40.3005 106.953 43.5617 105.356 41.3384L106.801 37.6299Z" fill="#EBB088"/>
</g>
</g>
</g>
</g>
</g>
</g>
</g>
</g>
</g>
<g id="Group_428">
<g id="Group_429">
<g id="Group_430">
<path id="Vector_69" d="M106.273 41.2613C106.217 41.5746 106.425 41.8747 106.739 41.9311C107.053 41.9875 107.353 41.7791 107.409 41.4658C107.465 41.1524 107.257 40.8523 106.944 40.7959C106.629 40.7395 106.33 40.9479 106.273 41.2613Z" fill="white"/>
</g>
</g>
</g>
<g id="Group_431">
<g id="Group_432">
<g id="Group_433">
<g id="Group_434">
<g id="Group_435">
<g id="Group_436">
<g id="Group_437">
<g id="Group_438">
<g id="Group_439">
<path id="Vector_70" d="M105.882 40.71C105.876 40.7073 105.869 40.7043 105.863 40.7012C105.766 40.6505 105.728 40.5315 105.778 40.4345C106.799 38.4769 108.795 38.4395 108.88 38.4386C108.989 38.4377 109.078 38.5254 109.079 38.6347C109.08 38.7436 108.992 38.833 108.883 38.8339C108.808 38.8348 107.037 38.8753 106.129 40.6174C106.082 40.7073 105.975 40.7461 105.882 40.71Z" fill="black"/>
</g>
</g>
</g>
</g>
</g>
</g>
</g>
</g>
</g>
<g id="Group_440">
<g id="Group_441">
<g id="Group_442">
<g id="Group_443">
<g id="Group_444">
<g id="Group_445">
<g id="Group_446">
<g id="Group_447">
<g id="Group_448">
<path id="Vector_71" d="M108.036 40.263C107.996 40.2471 107.959 40.2176 107.936 40.1766C107.826 39.9845 107.465 39.4764 107.116 39.434C107.008 39.4208 106.93 39.3221 106.944 39.2141C106.957 39.1057 107.056 39.0286 107.164 39.0418C107.773 39.1159 108.23 39.8933 108.28 39.9814C108.334 40.0762 108.301 40.1969 108.205 40.2511C108.152 40.2815 108.089 40.2842 108.036 40.263Z" fill="black"/>
</g>
</g>
</g>
</g>
</g>
</g>
</g>
</g>
</g>
</g>
<g id="Group_449">
<g id="Group_450">
<g id="Group_451">
<g id="Group_452">
<g id="Group_453">
<g id="Group_454">
<g id="Group_455">
<path id="Vector_72" d="M107.982 32.5234C107.982 32.5234 105.185 37.3205 106.464 37.8454C107.742 38.3702 109.814 36.8855 110.453 32.5089L107.982 32.5234Z" fill="#341A1B"/>
</g>
</g>
</g>
</g>
</g>
</g>
</g>
<g id="Group_456">
<g id="Group_457">
<g id="Group_458">
<path id="Vector_73" d="M107.326 32.8161L106.712 34.8434C106.411 35.8402 105.955 36.7864 105.339 37.6264C105.11 37.9397 104.869 38.2209 104.646 38.3897C102.287 40.175 102.661 43.0007 104.439 44.1285C104.439 44.1285 103.266 40.8082 105.529 39.2817C107.383 38.0314 107.143 38.3936 108.617 37.1941C109.857 36.1848 110.747 32.111 107.326 32.8161Z" fill="#341A1B"/>
</g>
</g>
</g>
<g id="Group_459">
<g id="Group_460">
<g id="Group_461">
<g id="Group_462">
<g id="Group_463">
<g id="Group_464">
<g id="Group_465">
<g id="Group_466">
<g id="Group_467">
<g id="Group_468">
<path id="Vector_74" d="M93.61 30.8276L95.9594 31.8386L95.8307 32.1691C95.8294 32.1686 95.8276 32.1678 95.8258 32.1673L93.4694 31.1533C93.3795 31.1145 93.3381 31.0105 93.3769 30.9201C93.4152 30.8302 93.5175 30.7844 93.61 30.8276Z" fill="white"/>
</g>
</g>
</g>
</g>
</g>
</g>
</g>
</g>
</g>
<g id="Group_469">
<g id="Group_470">
<g id="Group_471">
<g id="Group_472">
<g id="Group_473">
<g id="Group_474">
<g id="Group_475">
<g id="Group_476">
<g id="Group_477">
<g id="Group_478">
<path id="Vector_75" d="M99.767 33.1162C100.367 31.5768 102.107 30.8122 103.647 31.412C105.186 32.0118 105.951 33.7521 105.351 35.2915C104.751 36.8308 103.011 37.5954 101.472 36.9957C99.9318 36.3959 99.1672 34.6555 99.767 33.1162ZM100.098 33.2448C99.5687 34.6022 100.243 36.1367 101.6 36.6651C102.957 37.194 104.492 36.5197 105.02 35.1623C105.549 33.805 104.875 32.2704 103.518 31.742C102.161 31.2136 100.626 31.8879 100.098 33.2448Z" fill="white"/>
</g>
</g>
</g>
</g>
</g>
</g>
</g>
</g>
</g>
<g id="Group_479">
<g id="Group_480">
<g id="Group_481">
<g id="Group_482">
<g id="Group_483">
<g id="Group_484">
<g id="Group_485">
<g id="Group_486">
<g id="Group_487">
<path id="Vector_76" d="M93.1731 30.5473C93.7729 29.0079 95.5132 28.2433 97.0526 28.8431C98.5919 29.4429 99.3565 31.1832 98.7568 32.7226C98.157 34.262 96.4166 35.0266 94.8768 34.4268C93.3375 33.827 92.5733 32.0867 93.1731 30.5473ZM93.5036 30.676C92.9748 32.0334 93.649 33.5679 95.0064 34.0967C96.3637 34.6256 97.8978 33.9513 98.4267 32.5939C98.9555 31.2366 98.2813 29.702 96.9243 29.1736C95.5665 28.6448 94.032 29.3186 93.5036 30.676Z" fill="white"/>
</g>
</g>
</g>
</g>
</g>
</g>
</g>
</g>
</g>
<g id="Group_488">
<g id="Group_489">
<g id="Group_490">
<g id="Group_491">
<g id="Group_492">
<g id="Group_493">
<g id="Group_494">
<g id="Group_495">
<g id="Group_496">
<path id="Vector_77" d="M108.41 37.153C108.43 37.1605 108.451 37.1649 108.473 37.1653C108.571 37.1658 108.651 37.0869 108.652 36.9891C108.666 34.7794 105.354 34.6234 105.321 34.6225C105.223 34.619 105.14 34.6948 105.136 34.7926C105.132 34.8904 105.209 34.9729 105.306 34.9768C105.337 34.9781 108.309 35.1196 108.297 36.9869C108.296 37.0622 108.343 37.127 108.41 37.153Z" fill="white"/>
</g>
</g>
</g>
</g>
</g>
</g>
</g>
</g>
</g>
</g>
</g>
<g id="Group_497">
<g id="Group_498">
<g id="Group_499">
<g id="Group_500">
<g id="Group_501">
<g id="Group_502">
<g id="Group_503">
<g id="Group_504">
<g id="Group_505">
<path id="Vector_78" d="M98.7409 32.2176C98.7836 32.2344 98.8326 32.2344 98.8775 32.2141C99.517 31.9281 100.058 32.5927 100.063 32.5993C100.124 32.6755 100.236 32.6883 100.312 32.6275C100.389 32.5662 100.401 32.4547 100.34 32.3785C100.095 32.0709 99.4429 31.5729 98.733 31.8906C98.6435 31.9307 98.6034 32.0356 98.6435 32.1251C98.6633 32.1691 98.699 32.2013 98.7409 32.2176Z" fill="white"/>
</g>
</g>
</g>
</g>
</g>
</g>
</g>
</g>
</g>
</g>
</g>
<g id="Group_506">
<g id="Group_507">
<path id="Vector_79" d="M73.4394 20.9366C73.4394 20.9366 71.5087 23.383 69.0112 23.9272C66.5138 24.4719 63.7537 24.3772 62.6307 24.891C61.5078 25.4053 59.8305 26.2907 59.8671 27.2893C59.9037 28.288 61.02 29.2663 59.5586 29.8661C58.0972 30.4659 57.5036 29.035 56.973 28.132C56.4424 27.2294 57.0065 26.3982 57.8998 24.8042C58.7931 23.2106 59.3176 22.6197 60.7283 22.1746C61.7912 21.8392 63.0164 20.5144 63.7003 19.0601C64.3843 17.6067 72.0256 13.4606 73.4394 20.9366Z" fill="#341A1B"/>
</g>
<g id="Group_508">
<path id="Vector_80" d="M81.9996 18.199C81.9996 18.199 83.6469 19.2981 85.0285 22.8158C86.4101 26.3339 86.3193 30.6127 85.623 32.2459C84.6451 34.5393 83.4305 33.2904 83.2217 31.0005C83.0128 28.7106 81.7206 23.1873 79.6692 21.3196C77.6177 19.4524 80.4276 16.6596 81.9996 18.199Z" fill="#341A1B"/>
</g>
<g id="Group_509">
<path id="Vector_81" d="M80.8317 17.7323C81.9405 21.0798 85.3604 22.5117 85.8293 22.5033C86.2982 22.4954 88.1496 23.776 89.0618 24.4353C89.9732 25.0951 91.1917 24.5296 91.3596 23.8981C91.5267 23.2675 89.7361 22.7822 88.4567 21.5099C87.1791 20.2381 88.1029 18.8807 88.1029 18.8807C88.5392 19.7172 90.6267 20.5911 92.1154 21.4936C93.6037 22.3962 94.5358 21.5077 95.898 20.5836C96.1739 20.3967 96.4352 20.1671 96.6701 19.9146C97.5995 18.9213 98.1209 17.5859 97.4709 17.2087C97.2897 17.1038 97.0024 16.9615 96.6533 16.794C95.6137 16.2947 94.0334 15.5671 93.1176 14.906C92.9638 14.7954 92.8285 14.6857 92.7174 14.5799C92.0714 13.9621 91.8435 13.1075 91.4121 12.428C91.1816 12.0635 90.8934 11.7519 90.4513 11.5523C89.1843 10.9833 87.5 11.1535 87.5 11.1535C87.5 11.1535 84.122 11.6625 82.7074 12.2587C81.2909 12.8559 79.7229 14.3847 80.8317 17.7323Z" fill="#6E3E45"/>
</g>
<g id="Group_510">
<path id="Vector_82" d="M96.6526 16.7949C96.2502 17.393 95.7976 18.5198 96.6693 19.9155C97.5987 18.9222 98.1201 17.5869 97.47 17.2096C97.2889 17.1043 97.0016 16.9624 96.6526 16.7949Z" fill="#341A1B"/>
</g>
<g id="Group_511">
<path id="Vector_83" d="M59.9314 18.7419C60.5616 19.7824 61.4787 20.8277 62.6871 21.8237C65.1877 23.8844 68.9372 25.7239 73.9876 26.8327C75.8826 27.2488 77.6097 27.1205 79.1328 26.6957C83.6293 25.4445 86.3444 21.6175 86.3444 21.6175L80.9815 14.8139C80.9815 14.8139 79.7652 14.9109 77.6807 14.3631C76.9275 14.1661 76.0602 13.8841 75.0964 13.4826C72.2865 12.3143 69.5101 10.5814 66.809 10.072C66.0184 9.92215 65.2335 9.87807 64.4566 9.98252C60.9728 10.4532 57.9959 15.5495 59.9314 18.7419Z" fill="#6E3E45"/>
</g>
<g id="Group_512">
<g id="Group_513">
<path id="Vector_84" d="M61.12 13.2869C61.12 13.2869 55.0181 11.101 57.4627 4.45745C57.5072 4.33626 57.5543 4.21463 57.6041 4.09123C60.414 -2.83836 66.1202 1.13236 66.1202 1.13236C66.1202 1.13236 62.3276 0.74675 60.8891 4.11106C60.6445 4.68133 60.4687 5.35913 60.3898 6.16605C59.8482 11.7273 65.4513 11.0437 65.4513 11.0437L61.12 13.2869Z" fill="#6E3E45"/>
</g>
<g id="Group_514">
<path id="Vector_85" d="M57.4626 4.45745C57.5072 4.33626 57.5543 4.21463 57.6041 4.09123C60.414 -2.83836 66.1202 1.13236 66.1202 1.13236C66.1202 1.13236 62.3276 0.74675 60.8891 4.11106C60.4995 3.94139 60.0068 3.90306 59.3912 4.13619C58.7129 4.394 58.0417 4.49932 57.4626 4.45745Z" fill="#341A1B"/>
</g>
</g>
<g id="Group_515">
<path id="Vector_86" d="M70.1093 18.2911C70.1093 18.2911 68.1786 20.7374 65.6812 21.2817C63.1837 21.8264 60.4236 21.7316 59.3007 22.2455C58.1778 22.7594 56.5005 23.6452 56.5371 24.6438C56.5736 25.6424 57.6899 26.6208 56.2286 27.2206C54.7672 27.8199 54.1736 26.3894 53.643 25.4864C53.1124 24.5839 53.6765 23.7527 54.5698 22.1587C55.4631 20.5651 55.9875 19.9741 57.3982 19.529C58.4612 19.1936 59.6863 17.8689 60.3703 16.4146C61.0542 14.9607 68.6956 10.8146 70.1093 18.2911Z" fill="#6E3E45"/>
</g>
<g id="Group_516">
<path id="Vector_87" d="M65.7141 11.0279C66.0032 13.2926 67.952 11.9066 68.7025 14.416C69.453 16.9253 70.8412 18.5709 71.92 17.0954C72.998 15.6204 74.6784 15.56 76.3098 15.9584C77.319 16.2043 77.6077 15.1806 77.6813 14.3622C76.9281 14.1652 76.0609 13.8832 75.097 13.4817C72.2871 12.3134 69.5107 10.5806 66.8096 10.0711C66.0842 10.2575 65.6555 10.5739 65.7141 11.0279Z" fill="#341A1B"/>
</g>
<g id="Group_517">
<path id="Vector_88" d="M62.6868 21.8233C65.1873 23.884 68.9368 25.7235 73.9872 26.8323C75.8823 27.2483 77.6094 27.1201 79.1324 26.6952C78.9826 26.1408 78.6009 25.4071 77.8747 24.4375C77.8747 24.4375 76.5464 23.6302 73.4315 24.2198C70.3166 24.8095 68.8808 24.0418 66.5204 22.5936C64.5042 21.3561 63.3236 20.9895 62.6868 21.8233Z" fill="#341A1B"/>
</g>
<g id="Group_518">
<g id="Group_519">
<g id="Group_520">
<g id="Group_521">
<g id="Group_522">
<g id="Group_523">
<g id="Group_524">
<g id="Group_525">
<g id="Group_526">
<g id="Group_527">
<g id="Group_528">
<g id="Group_529">
<path id="Vector_89" d="M71.7462 30.8013C72.5967 31.4288 76.4511 32.2657 78.1518 29.2465C79.7273 26.4498 80.5818 25.6671 81.4522 23.4803C82.2058 21.5866 80.774 22.6064 79.4479 23.5892C78.1218 24.5719 77.8336 25.2779 77.2576 23.9184C76.6811 22.5584 76.7834 16.3198 75.9033 14.9386C75.0232 13.557 74.8818 21.4884 74.8818 21.4884C74.8818 21.4884 73.8937 14.8047 72.9876 14.5517C71.9022 14.2489 72.5514 21.4482 72.5514 21.4482C72.5514 21.4482 70.9 15.8928 70.4607 15.9677C69.6088 16.1127 70.3831 21.9044 70.3831 21.9044C70.3831 21.9044 69.0513 18.139 68.5202 18.6229C67.9901 19.1068 68.8177 26.7724 71.7462 30.8013Z" fill="#EBB088"/>
</g>
</g>
</g>
</g>
</g>
</g>
</g>
</g>
</g>
</g>
</g>
</g>
<g id="Group_530">
<path id="Vector_90" d="M80.0707 19.5665C80.0707 19.5665 81.7229 20.3782 82.2949 23.9369C82.8947 27.6688 83.0115 31.6033 82.0997 33.9236C81.1879 36.2439 79.7723 34.9848 79.563 32.695C79.3541 30.4051 78.5044 26.6459 77.3502 24.1229C75.8113 20.7581 78.4987 18.0267 80.0707 19.5665Z" fill="#6E3E45"/>
</g>
<g id="Group_531">
<path id="Vector_91" d="M89.6445 11.2914C89.6445 11.2914 90.0424 12.3575 88.7388 13.4398C87.4353 14.5222 86.698 18.6185 84.3279 19.2188C81.9578 19.8194 80.2104 18.6714 79.4868 17.5115C78.3396 15.6724 81.6542 11.0358 82.8185 11.1253C83.9824 11.2152 87.6613 9.8089 89.6445 11.2914Z" fill="#341A1B"/>
</g>
<g id="Group_532">
<path id="Vector_92" d="M87.9038 20.6854C87.9038 20.6854 90.5723 21.2085 91.767 22.6073C92.9617 24.0057 92.2293 25.5398 91.4343 25.7874C90.6388 26.0351 91.5973 23.6447 90.834 23.3191C90.0703 22.9929 88.2599 21.9934 87.9038 20.6854Z" fill="#FB705F"/>
</g>
<g id="Group_533">
<g id="Group_534">
<g id="Group_535">
<g id="Group_536">
<g id="Group_537">
<g id="Group_538">
<g id="Group_539">
<g id="Group_540">
<path id="Vector_93" d="M91.3922 15.568C91.4398 15.9876 91.6695 16.3062 91.9048 16.2797C92.1401 16.2533 92.2926 15.8919 92.245 15.4724C92.1974 15.0528 91.9678 14.7346 91.7325 14.7606C91.4971 14.7871 91.3446 15.1485 91.3922 15.568Z" fill="#341A1B"/>
</g>
</g>
</g>
</g>
</g>
</g>
</g>
</g>
</g>
</g>
</g>
</g>
</svg>
